<svg width="1377" height="306" viewBox="0 0 1377 306" fill="none" xmlns="http://www.w3.org/2000/svg">
<path opacity="0.1" d="M1287.64 103.574C1282.74 100.438 1282.23 97.6624 1286.48 93.6751C1291.2 89.1316 1296.47 85.0498 1300.63 80.0447C1308.95 70.0346 1315.65 59.1486 1318.28 45.8182C1319.99 36.4224 1323.59 28.1334 1332.06 22.4722C1336.17 19.7807 1340.38 18.1068 1345.38 19.4389C1346.16 19.6225 1347.64 18.9718 1348.61 18.3685C1353.19 15.1208 1358 11.5951 1364.25 12.5546C1365.08 13.247 1365.68 14.2174 1366.74 14.6318C1366.05 15.466 1365.4 16.809 1364.43 17.4124C1361.75 18.9444 1359.02 19.9676 1356.57 21.2216C1355.83 21.547 1355 23.6769 1355.56 24.1385C1358.56 28.9908 1355.51 32.0967 1353.57 36.1259C1350.75 41.7761 1348.44 47.379 1345.62 53.0292C1340.4 63.2647 1335.78 74.4705 1326.21 82.0309C1319.09 88.3372 1311.74 94.9216 1303.88 101.553C1298.89 105.866 1292.55 106.711 1287.64 103.574ZM1342.88 25.8288C1340.85 26.0178 1338.63 26.9937 1336.78 26.3959C1334.42 25.8452 1333.45 26.4486 1332.01 27.6081C1325.26 32.3406 1323.65 39.9317 1321.98 47.014C1318.2 64.557 1308.96 78.5017 1296.19 90.4637C1293.56 92.5046 1291.2 94.7764 1288.57 96.8173C1287.18 98.4856 1287.04 99.7814 1289.4 100.332C1291.76 100.883 1294.91 101.617 1297.17 101.15C1299.67 100.405 1302.07 98.6418 1303.97 96.9262C1312.98 88.9043 1322.56 81.3439 1330.74 72.6296C1337.77 65.3056 1341.79 55.9516 1344.74 46.1832C1345.9 41.9706 1349.41 38.3085 1347.93 33.3144C1343.53 32.9528 1342.7 32.2604 1342.88 25.8288Z" fill="#020202"/>
<g opacity="0.1">
<path d="M1228.99 218.576C1227.51 216.6 1225.35 216.015 1222.9 215.724C1221.32 215.7 1219.92 216.189 1218.58 216.849C1217.25 217.508 1216.61 218.497 1215.8 219.547C1215.16 220.536 1214.35 221.586 1213.95 222.684C1213.49 224.186 1213.04 225.687 1213.57 227.224C1213.75 227.737 1213.81 228.481 1213.99 228.994L1213.82 229.055C1212.93 227.64 1211.35 227.042 1210.47 225.627C1209.58 224.212 1208.17 222.98 1206.07 222.566C1203.9 221.408 1201.57 222.032 1199.36 222.997C1196.1 224.329 1192.72 225.892 1190.28 228.469C1189.41 229.348 1188.95 230.275 1188.55 231.374C1188.33 232.411 1187.86 233.339 1187.99 234.254C1188.05 234.425 1187.82 234.889 1187.93 235.231L1187.82 235.463C1187.59 235.353 1187.24 235.475 1187.12 235.133C1186.47 234.402 1186.06 233.779 1185.41 233.048C1184.53 232.206 1183.53 231.596 1182.54 230.987C1179.78 229.841 1177.32 228.402 1174.57 227.256C1173.87 226.927 1173.23 226.769 1172.41 226.671C1171.77 226.513 1170.55 227.514 1170.2 228.21C1169.33 229.663 1169.11 231.274 1168.3 232.897C1167.67 233.886 1167.85 234.972 1167.68 236.181C1167.58 238.133 1167.24 239.976 1167.37 242.039C1167.5 244.101 1167.4 246.054 1167.87 247.994C1167.93 248.165 1168.05 248.506 1168.11 248.677C1168.47 249.702 1168.35 249.934 1167.25 250.13C1165.96 250.387 1164.74 250.814 1163.52 251.242C1160.2 252.403 1156.88 253.564 1153.38 254.786C1152.16 255.214 1150.93 255.642 1149.65 255.899C1148.89 255.972 1148.49 256.497 1147.79 256.742C1145.75 257.646 1143.48 258.44 1141.38 259.173C1141.03 259.296 1140.74 259.589 1140.39 259.137C1140.33 258.967 1140.16 259.028 1139.98 259.089C1139.17 259.565 1138.71 261.066 1139.01 261.921C1139.24 262.604 1139.6 263.055 1140.01 263.677C1140.13 264.019 1140.3 263.958 1140.65 263.836C1141.58 263.127 1142.52 262.993 1143.62 262.797C1144.73 262.601 1146.02 262.344 1147.06 261.977C1147.41 261.855 1147.76 261.733 1148.23 261.379C1148.46 260.915 1149.22 260.841 1149.63 260.89C1150.5 261.158 1151.32 260.682 1152.02 260.437C1154.64 259.521 1157.37 258.372 1159.88 257.114C1162.9 255.672 1166.05 255.146 1169.14 253.875C1169.49 253.753 1169.72 253.863 1169.78 254.034C1169.9 254.375 1170.19 254.656 1170.43 254.766C1170.49 254.936 1170.66 254.875 1170.55 255.107C1169.91 256.096 1170.79 256.938 1171.21 257.56C1172.56 259.768 1173.86 261.805 1175.33 263.782C1176.16 265.026 1177.39 265.745 1178.73 266.233C1180.78 267.049 1182.95 267.634 1185.11 268.219C1185.75 268.377 1186.1 268.255 1186.45 267.559C1187.2 265.765 1188.35 264.019 1189.33 262.335C1189.68 261.639 1189.85 261.004 1190.2 260.308C1190.71 258.978 1191.35 257.989 1192.04 256.597C1192.39 255.902 1192.91 255.145 1192.61 254.291C1192.55 254.12 1192.73 254.059 1192.55 254.12C1191.79 253.62 1191.9 252.814 1192.01 252.009C1192.31 252.289 1192.54 252.399 1192.66 252.741C1194.02 254.949 1196.12 255.363 1198.57 255.081C1199.5 254.946 1200.67 254.921 1201.6 254.786C1205.05 254.541 1208.43 254.124 1211.81 253.707C1212.75 253.573 1213.74 253.035 1214.61 252.73C1214.79 252.669 1215.08 252.376 1215.02 252.205C1214.96 252.034 1214.9 251.863 1215.13 251.973C1216.12 252.009 1216.24 251.203 1216.64 250.678C1218.32 248.176 1219.41 246.259 1219.46 243.562C1222.39 245.794 1225.78 246.525 1229.51 244.839C1233.29 243.323 1235.26 240.528 1236.11 236.781C1236.88 237.854 1237.29 239.05 1237.82 240.014C1238 240.526 1238.18 241.039 1238.71 241.429C1239.3 241.99 1240.11 242.087 1241.05 241.953C1244.6 240.901 1248.27 240.192 1251.77 238.97C1252.47 238.725 1252.93 238.371 1253.46 238.188C1254.27 237.711 1255.44 237.686 1255.85 237.161C1256.54 236.343 1257.59 235.403 1257.17 234.207C1257.11 234.037 1257.05 233.866 1256.93 233.524C1257.99 234.878 1258.88 236.293 1260.05 237.416C1260.99 238.428 1262.4 239.086 1263.51 240.038C1263.75 240.147 1263.98 240.257 1264.27 240.538C1265.16 241.953 1267.14 242.025 1269.01 241.756C1270.35 241.669 1271.4 240.729 1272.27 239.85C1272.67 239.325 1272.67 238.752 1272.67 238.178C1272.19 236.238 1271.82 234.066 1271.34 232.126C1270.98 230.527 1270.45 228.99 1270.26 227.33C1270.2 226.586 1270.19 226.012 1270.13 225.268C1270.12 223.547 1270.11 221.826 1270.39 219.813C1271.21 221.057 1272.04 222.301 1272.98 223.314C1274.86 225.339 1277.09 226.668 1279.89 227.411C1280.54 227.569 1280.72 228.081 1281.36 228.24C1283.23 228.544 1285.16 228.445 1287.08 228.347C1289.53 228.065 1292.1 228.125 1294.61 227.44C1296 226.951 1297.47 227.207 1298.8 226.547C1299.44 226.132 1300.14 225.887 1300.9 225.814C1301.49 225.801 1301.71 224.764 1301.71 224.19C1301.41 222.762 1300.18 222.043 1299.59 220.908C1297.99 218.017 1295.41 215.663 1294.28 212.417C1294.1 211.905 1293.63 211.685 1293.28 211.234C1292.92 210.783 1292.8 210.441 1293.62 209.965C1294.49 209.659 1295.43 209.524 1296.12 208.706C1296.59 208.352 1297.17 208.34 1297.69 208.156C1298.92 207.729 1300.08 207.704 1301.13 207.337C1303.87 206.189 1306.55 204.869 1309.46 204.233C1311.27 203.793 1312.25 202.682 1313.41 201.51C1313.59 201.449 1313.7 201.217 1313.82 200.985C1314.23 200.46 1314.22 199.886 1313.46 199.96C1312 199.704 1310.54 199.449 1309.02 199.596C1308.44 199.608 1308.27 200.243 1307.74 200.426C1304.48 201.758 1301.28 202.687 1298.08 204.19C1297.03 204.557 1295.75 204.814 1294.7 205.18C1293.65 205.547 1292.72 205.682 1291.73 206.219C1290.45 207.05 1289.8 206.891 1289.1 205.988C1286.74 203.171 1284.04 200.475 1281.98 197.364C1281.57 196.742 1281.04 196.352 1280.51 195.961C1279.04 194.559 1277.75 193.095 1276.57 191.399C1276.22 190.948 1275.69 190.557 1275.22 190.338C1274.69 189.948 1274.58 190.18 1274.35 190.644C1273.14 193.939 1271.29 197.076 1270.73 200.53C1270.68 200.933 1270.62 201.336 1269.86 200.836C1268.33 199.836 1266.75 199.239 1264.94 199.105C1264.36 199.118 1264.7 198.422 1264.82 198.19C1265.17 197.494 1265.34 196.86 1265.27 196.115C1265.38 195.31 1265.09 194.456 1264.79 193.602C1264.67 193.26 1264.61 193.089 1264.03 193.102C1263.44 193.114 1262.8 192.956 1262.28 193.139C1261.75 193.323 1261.4 193.445 1261.64 194.128C1261.94 194.982 1262.06 195.897 1262.18 196.813C1262.3 197.154 1262.25 197.557 1262.19 197.96C1262.2 199.107 1261.68 199.864 1260.28 200.353C1257.02 201.111 1254.64 203.284 1252.61 205.909C1252.09 206.666 1251.51 207.252 1251.22 208.119C1250.99 208.583 1250.99 208.583 1250.52 208.363C1248.47 206.973 1246.13 206.449 1243.73 205.755C1243.32 205.706 1242.8 205.89 1242.39 205.841C1241.63 205.915 1240.64 205.879 1239.94 206.123C1238.48 206.441 1237.32 207.04 1235.86 207.358C1234.23 207.737 1232.72 208.458 1231.32 208.946C1229.69 209.326 1229.29 210.424 1228.77 211.755C1228.43 213.024 1228.26 214.232 1228.5 215.489C1228.62 215.831 1228.74 216.172 1228.86 216.514C1228.86 217.088 1228.75 217.893 1228.99 218.576ZM1277.07 197.354C1276.96 197.586 1277.02 197.757 1276.9 197.989C1276.86 200.112 1276.58 202.126 1276.71 204.189C1276.66 206.312 1276.74 208.204 1277.04 210.205C1277.16 210.546 1277.57 211.169 1277.11 211.523C1276.64 211.877 1277.05 211.926 1277.17 212.267C1277.23 212.438 1277.4 212.377 1277.52 212.719C1277.71 213.805 1278.41 214.707 1279.12 215.61C1279.58 215.256 1279.46 214.914 1279 214.695C1278.76 214.585 1278.7 214.414 1278.64 214.243C1277.64 212.487 1277.57 210.595 1277.32 208.765C1276.96 206.593 1277.12 204.237 1277.16 202.114C1277.21 199.99 1277.25 197.867 1278.18 196.011C1278.41 196.121 1278.47 196.292 1278.35 196.524C1278.07 197.39 1277.78 198.257 1277.73 199.233C1277.62 200.039 1277.91 200.893 1277.8 201.698C1277.7 204.225 1278.36 206.677 1278.61 209.081C1278.91 211.083 1279.86 212.669 1280.8 214.255C1281.22 214.877 1281.57 215.328 1282.16 215.889C1283.56 217.121 1285.32 217.657 1287.07 218.193C1289.71 218.997 1292.51 219.167 1295.31 219.336C1296.13 219.433 1296.95 219.531 1297.48 220.495C1296.84 220.336 1296.73 221.142 1296.14 221.154C1294.98 221.179 1293.87 221.375 1292.87 221.339C1291.06 221.206 1289.13 220.731 1287.26 220.426C1285.39 220.122 1283.58 219.415 1282.06 218.415C1281.23 217.745 1280.47 217.245 1279.65 216.574C1279.71 217.318 1280.01 217.599 1280.36 218.05C1281.88 219.05 1283.29 220.282 1285.05 220.818C1286.33 221.135 1287.8 221.39 1289.08 221.707C1291.89 222.45 1294.75 222.217 1297.61 221.983C1298.19 221.971 1298.37 221.91 1298.37 222.483C1298.08 222.776 1297.85 222.667 1297.5 222.789C1292.36 223.817 1287.17 224.1 1282.14 222.601C1279.74 221.907 1278.1 220.565 1276.86 218.699C1275.62 216.832 1275.02 214.55 1274.66 212.378C1274.36 210.951 1274.41 209.401 1274.69 207.961C1274.85 206.179 1275.43 204.445 1275.77 202.603C1276.11 201.333 1276.22 199.954 1276.73 198.624C1276.78 197.647 1276.9 197.415 1277.07 197.354C1277.01 197.183 1276.96 197.013 1277.13 196.952C1277.24 196.146 1277.41 195.511 1277.52 194.706C1278.05 195.096 1278.17 195.438 1277.71 195.792C1277.42 196.085 1277.36 196.488 1277.13 196.952C1277.19 197.122 1277.01 197.183 1277.07 197.354ZM1246.2 207.767C1246.2 207.767 1246.14 207.597 1246.2 207.767C1246.14 207.597 1246.14 207.597 1246.2 207.767C1248.01 207.901 1249.24 208.62 1249.66 210.389C1249.84 210.902 1249.61 211.366 1249.55 211.769C1249.56 212.916 1248.98 214.075 1248.82 215.284C1248.4 213.514 1247.39 211.757 1246.97 209.988C1246.85 209.073 1246.61 208.39 1246.2 207.767ZM1189.67 250.912C1190.49 251.009 1190.67 251.521 1191.19 251.912C1191.72 252.302 1191.03 253.12 1191.61 253.681C1190.09 253.255 1189.97 252.913 1189.91 251.595C1189.61 251.314 1189.73 251.082 1189.67 250.912C1189.03 251.327 1189.44 251.949 1189.27 252.584C1188.63 252.425 1188.22 251.803 1187.86 251.352C1187.51 250.901 1186.75 250.974 1186.57 250.462C1185.98 249.327 1184.98 248.144 1184.68 246.716C1184.5 246.204 1184.5 245.63 1184.55 245.227C1184.72 243.445 1184.77 241.896 1185.16 240.223C1185.62 238.722 1186.02 237.05 1186.24 235.439C1187.47 236.158 1187.95 236.951 1187.43 238.282C1187.31 238.514 1187.26 238.917 1187.2 239.319C1187.03 239.954 1187.03 240.528 1185.98 240.321C1185.75 240.211 1185.57 240.272 1185.63 240.443C1185.52 240.675 1185.69 240.614 1185.93 240.723C1186.92 240.76 1186.86 241.162 1186.75 241.968C1186.64 242.2 1186.7 242.371 1186.76 242.541C1186.93 243.054 1186.64 243.347 1186.12 243.53C1185.77 243.652 1185.54 243.543 1185.31 244.007C1185.02 245.447 1184.91 246.826 1185.91 248.009C1186.21 248.29 1186.27 248.46 1186.56 248.167C1187.2 247.752 1187.49 248.033 1187.67 248.545C1187.73 248.716 1188.02 248.997 1188.08 249.167C1188.49 249.79 1189.37 250.058 1189.67 250.912ZM1185.55 263.85C1185.78 263.386 1186.19 262.861 1186.36 262.226C1186.99 260.664 1187.68 259.272 1188.67 258.161C1189.25 257.575 1189.53 256.709 1189.88 256.013C1189.99 255.781 1190.11 255.549 1189.87 255.439C1189.64 255.329 1189.52 255.561 1189.35 255.622C1187.9 256.514 1186.97 257.796 1186.04 259.078C1184.48 260.775 1183.38 262.691 1181.82 264.389C1181.53 264.682 1181.59 264.852 1182.05 265.072C1182.93 265.34 1183.69 265.84 1184.69 265.876C1184.46 266.34 1184.34 266.572 1184.28 266.975C1184.17 267.206 1184.05 267.438 1183.82 267.329C1182.94 267.061 1182.07 266.793 1181.19 266.525C1181.24 266.122 1181.59 266 1181.47 265.658C1181.3 265.719 1181.12 265.78 1180.95 265.841C1180.78 266.476 1180.31 266.256 1179.9 266.208C1178.96 265.769 1178.49 264.976 1177.73 264.476C1177.5 264.366 1177.79 264.073 1177.96 264.012C1178.37 263.487 1178.83 263.133 1179.3 262.779C1179.47 262.718 1179.41 262.547 1179.35 262.376C1179.29 262.205 1178.94 262.328 1179 262.498C1178.54 262.853 1177.96 263.439 1177.49 263.793C1177.2 264.086 1177.03 264.147 1176.73 263.866C1175.44 262.976 1174.56 261.561 1173.73 260.317C1173.61 259.975 1173.5 259.633 1174.25 259.56C1174.19 259.389 1174.25 258.986 1173.79 259.34C1173.44 259.462 1173.2 259.353 1173.08 259.011C1172.61 257.645 1172.13 256.278 1171.48 254.972C1171.3 254.46 1171.48 254.399 1172 254.216C1172.53 254.032 1173.05 253.849 1173.57 253.666C1173.75 253.604 1173.92 253.543 1173.8 253.202C1173.75 253.031 1173.57 253.092 1173.4 253.153C1172.87 253.336 1172.11 253.41 1171.65 253.764C1171.3 253.886 1171.3 253.886 1171 253.606C1169.89 252.081 1169.82 250.189 1168.81 248.433C1168.69 248.091 1168.87 248.03 1169.1 248.14C1170.03 248.005 1171.08 247.638 1172.02 247.503C1172.19 247.442 1172.43 247.552 1172.48 247.149C1172.36 246.808 1172.25 247.04 1172.01 246.93C1171.49 247.113 1170.9 247.126 1170.38 247.309C1168.75 247.688 1168.75 247.688 1168.62 246.199C1168.56 246.029 1168.68 245.797 1168.62 245.626C1168.56 244.881 1168.9 244.759 1169.49 244.747C1170.83 244.661 1172 244.636 1173.34 244.55C1173.52 244.488 1173.75 244.598 1173.69 244.427C1173.81 244.195 1173.57 244.086 1173.4 244.147C1173.22 244.208 1172.99 244.098 1172.81 244.159C1171.47 244.245 1170.13 244.331 1169.02 244.527C1168.85 244.588 1168.5 244.711 1168.55 244.308C1168.55 243.734 1168.31 243.051 1168.48 242.416C1168.77 241.55 1168.88 240.744 1168.93 239.768C1168.99 239.365 1169.16 239.304 1169.57 239.353C1170.56 239.389 1171.56 239.425 1172.72 239.4C1173.89 239.375 1175.12 239.521 1176.34 239.666C1176.58 239.776 1177.05 239.996 1177.16 239.764C1177.22 239.361 1176.64 239.373 1176.4 239.264C1176.17 239.154 1175.99 239.215 1175.76 239.105C1174.12 238.911 1172.55 238.887 1170.91 238.693C1170.33 238.705 1169.8 238.315 1169.16 238.73C1169.33 237.522 1169.32 236.375 1169.49 235.167C1169.54 234.764 1169.6 234.361 1169.65 233.959C1169.71 233.556 1169.82 233.324 1170.29 233.543C1171 233.872 1171.64 234.031 1172.11 234.25C1172.34 234.36 1172.58 234.47 1172.69 234.238C1172.81 234.006 1172.57 233.896 1172.34 233.786C1171.69 233.628 1171.17 233.238 1170.35 233.14C1169.94 233.092 1169.65 232.811 1169.94 232.518C1170.34 231.993 1170.34 231.42 1170.16 230.907C1169.86 230.053 1170.5 229.638 1170.67 229.003C1171.02 228.307 1172.07 227.941 1172.88 228.038C1174.93 228.281 1176.45 229.281 1178.09 230.049C1179.5 230.707 1181.25 231.243 1182.43 232.366C1183.31 233.207 1184.31 233.817 1185.19 234.659L1185.25 234.829C1185.07 234.89 1185.07 234.89 1185.01 234.72C1184.43 234.732 1184.08 234.281 1183.26 234.184C1183.5 234.867 1184.2 235.196 1184.78 235.183C1185.37 235.171 1185.48 235.513 1185.43 235.915C1185.26 237.124 1185.26 237.124 1183.97 236.807C1183.74 236.697 1183.51 236.588 1183.33 236.649C1182.05 236.332 1180.7 235.845 1179.18 235.992C1179.01 236.053 1178.77 235.943 1178.83 236.114C1178.72 236.346 1179.13 236.394 1179.3 236.333C1179.71 236.382 1180.29 236.369 1180.53 236.479C1181.76 237.199 1183.34 237.222 1184.45 237.6C1185.09 237.758 1184.97 237.99 1184.98 238.564C1184.64 240.407 1183.72 242.262 1183.61 244.215C1183.56 244.618 1183.38 244.679 1183.21 244.74C1182.45 244.813 1181.75 245.058 1180.88 245.363C1180.7 245.424 1180.41 245.144 1180.35 245.547C1180.47 245.888 1180.82 245.766 1181 245.705C1181.69 245.461 1182.45 245.387 1182.98 245.204C1183.68 244.959 1183.56 245.191 1183.74 245.704C1183.8 246.448 1183.93 247.363 1184.16 248.047C1184.34 248.559 1184.64 248.84 1183.82 249.316C1184.41 249.303 1184.64 249.413 1184.99 249.864C1185.52 250.828 1186.23 251.731 1187.05 252.402C1187.64 252.963 1187.41 253.427 1186.94 253.781C1186.83 254.013 1186.48 254.135 1186.3 254.196C1186.19 254.428 1185.84 254.55 1185.96 254.892C1186.77 254.416 1187.41 254 1187.87 253.073C1188.4 253.463 1188.64 254.146 1189.63 254.182C1190.22 254.17 1190.74 254.56 1191.39 254.718C1192.03 254.877 1192.15 255.218 1191.98 255.853C1191.92 256.256 1191.63 256.549 1191.58 256.952C1191.12 257.879 1190.48 258.868 1190.08 259.967C1189.28 262.737 1187.19 265.191 1185.98 267.913C1185.75 268.377 1185.46 268.097 1185.05 268.048C1184.64 267.999 1184.76 267.768 1184.87 267.536C1185.33 266.608 1185.79 265.68 1186.08 264.814C1186.2 264.582 1186.31 264.35 1186.08 264.24C1185.84 263.557 1185.72 263.789 1185.55 263.85C1185.55 263.85 1185.61 264.021 1185.55 263.85C1185.37 263.911 1185.55 263.85 1185.55 263.85ZM1189.11 244.786C1188.99 244.444 1188.81 243.932 1188.86 243.529C1189.2 241.686 1188.9 239.685 1189.24 237.842C1189.4 236.633 1189.22 235.547 1188.98 234.29C1188.79 232.631 1189.43 231.068 1190.12 229.677C1190.23 229.445 1190.41 229.384 1190.58 229.323C1191.98 228.26 1193.61 227.308 1195 226.245C1196.86 224.829 1199.13 224.034 1201.34 223.069C1201.87 222.886 1202.57 222.641 1203.15 222.629C1204.61 222.311 1205.66 223.091 1207.01 223.579C1208.41 224.237 1209.7 225.127 1210.59 226.542C1210.94 226.994 1210.6 227.69 1211.07 227.909C1212.24 228.458 1212.59 229.483 1213.24 230.214C1214.12 231.056 1214.48 232.081 1214.49 233.228C1214.43 234.204 1214.79 235.229 1215.44 235.961C1216.5 237.315 1216.68 238.975 1217.22 240.512C1218.17 242.672 1218.01 245.027 1218.02 247.322C1217.96 247.724 1218.14 248.237 1217.85 248.53C1216.75 249.873 1215.59 251.045 1214.43 252.217C1213.68 252.864 1212.86 253.341 1211.93 253.475C1210.47 253.793 1209.19 253.477 1207.73 253.795C1204.93 254.199 1202.01 254.261 1199.27 254.836C1196.7 255.35 1194.83 254.473 1193.36 252.496C1191.3 249.959 1190.35 247.226 1189.11 244.786ZM1253.61 225.679C1253.02 225.118 1253.14 224.312 1252.55 223.751C1251.78 222.678 1251.13 221.372 1250.54 220.237C1249.65 218.249 1250.28 216.113 1250.33 213.989C1250.32 213.416 1250.49 212.781 1250.66 212.146C1251.87 209.424 1253.26 206.641 1255.34 204.187C1256.15 203.137 1257.31 201.965 1258.89 202.562L1259.07 202.501C1260.47 202.586 1261.4 201.878 1262.56 201.279C1263.9 200.619 1265.3 200.13 1266.82 200.557C1267.23 200.605 1267.46 200.715 1267.93 200.935C1268.81 201.203 1269.75 202.789 1269.41 203.484C1268.83 204.644 1268.66 205.852 1268.5 207.061C1268.05 210.283 1267.84 213.614 1268.97 216.86C1269.15 217.372 1269.15 217.946 1269.27 218.288C1269.28 219.435 1269.05 220.472 1269.23 221.558C1269.48 223.389 1268.96 225.293 1268.97 227.013C1267.92 226.233 1266.91 224.476 1266.67 223.219C1266.55 222.878 1266.78 222.414 1266.2 222.426C1265.62 222.439 1265.97 222.89 1265.91 223.293C1266.22 224.721 1266.93 226.197 1267.46 227.734C1268.17 229.784 1270.23 231.174 1270.07 233.53C1270.13 233.701 1270.13 233.701 1270.19 233.871C1270.72 235.409 1271.67 236.995 1271.68 238.716C1271.74 239.46 1271.51 239.924 1270.64 240.229C1268.65 240.731 1266.61 240.488 1264.62 239.842C1261.05 238.599 1258.93 235.891 1257.16 233.06C1256.87 232.78 1256.86 232.206 1256.75 231.864C1256.56 230.205 1255.79 228.558 1255.25 227.02C1254.49 225.373 1254.24 223.543 1254.34 221.59C1254.39 220.04 1254.09 218.613 1253.56 217.075C1253.5 216.904 1253.44 216.733 1253.2 216.624C1253.03 216.685 1252.91 216.917 1252.91 216.917C1253.21 217.771 1252.75 218.699 1253.05 219.553C1253.41 221.151 1253.18 222.762 1253.54 224.361C1253.55 224.934 1253.73 225.447 1253.61 225.679ZM1220.45 216.579C1221.85 216.664 1223.13 216.407 1224.6 216.663C1226.29 217.028 1227.35 218.382 1228.64 219.272C1229.46 219.943 1229.93 220.736 1230.12 221.822C1230.3 222.908 1230.6 223.762 1230.95 224.787C1231.43 225.58 1232.07 226.312 1232.2 227.227C1232.62 228.997 1233.5 230.412 1234.09 232.12C1234.33 232.803 1234.22 233.609 1234.63 234.231C1235.17 235.195 1235.29 236.11 1234.89 237.209C1234.14 239.003 1233.86 241.017 1231.77 242.323C1230.66 243.093 1229.62 244.033 1228.28 244.693C1225.54 245.841 1221.63 245.294 1219.57 243.33C1219.04 242.94 1218.63 242.318 1218.69 241.915C1218.74 241.512 1218.8 241.11 1218.56 241C1217.8 239.926 1217.38 238.731 1216.62 237.657C1215.62 236.474 1215.25 234.875 1215.19 233.557C1215.06 232.069 1214.41 230.763 1214.28 229.274C1214.16 228.359 1213.98 227.273 1213.8 226.187C1213.56 225.504 1214.2 225.088 1214.14 224.344C1214.24 222.391 1215.4 220.646 1216.85 219.18C1217.31 218.826 1217.84 218.643 1218.24 218.118C1219.17 217.41 1219.81 216.994 1220.45 216.579ZM1276 193.706C1276.82 194.377 1276.88 195.121 1276.6 195.988C1275.51 199.051 1275.06 202.273 1274.38 205.386C1273.98 207.058 1273.65 208.901 1273.89 210.731C1274.2 212.732 1274.91 214.782 1275.56 216.661C1276.4 219.053 1278.16 220.736 1280.62 221.601C1283.84 222.967 1287.52 223.404 1291.13 223.097C1293.47 223.047 1295.86 222.594 1298.25 222.142C1298.95 221.897 1298.89 222.3 1299.07 222.812C1299.25 223.325 1298.84 223.276 1298.49 223.399C1297.97 223.582 1297.21 223.655 1296.63 223.668C1296.04 223.68 1295.46 223.693 1294.87 223.705C1292.37 224.39 1289.86 224.501 1287.41 224.783C1285.54 225.053 1283.62 225.151 1281.98 224.383C1279.28 223.408 1276.88 222.14 1275.47 219.761C1274.52 218.175 1273.46 216.821 1272.98 214.881C1272.62 213.282 1272.03 211.574 1272.25 209.963C1272.36 208.011 1272.46 206.058 1272.91 203.983C1273.31 202.311 1273.07 200.48 1273.87 198.857C1274.91 197.343 1275.25 195.5 1276 193.706ZM1274.53 191.73C1275.41 192.571 1275.53 193.486 1275.07 194.414C1274.96 194.646 1275.01 194.817 1274.84 194.878C1274.04 197.649 1272.54 200.09 1272.38 203.019C1272.17 206.351 1271.37 209.695 1271.92 212.953C1272.71 217.468 1274.66 221.385 1278.82 223.762C1279.82 224.372 1281.05 225.091 1282.27 225.237C1285.14 225.577 1288.17 225.283 1291.2 224.989C1292.9 224.78 1294.47 224.23 1296.22 224.193C1297.04 224.29 1297.8 224.217 1298.67 223.911C1299.37 223.667 1299.55 224.179 1299.67 224.521C1299.85 225.033 1299.26 225.046 1299.09 225.107C1298.91 225.168 1298.74 225.229 1298.56 225.29C1296.87 225.498 1295.12 225.536 1293.61 226.257C1293.43 226.318 1293.08 226.44 1292.91 226.501C1289.93 226.966 1286.9 227.261 1283.92 226.579C1283.04 226.311 1282.05 226.275 1281.23 226.177C1279.36 225.873 1278.12 224.58 1276.49 223.812C1275.25 223.093 1274.02 222.373 1273.43 221.239C1272.9 220.275 1272.54 219.25 1271.84 218.347C1271.78 218.177 1271.78 218.177 1271.72 218.006C1271.18 216.468 1271.06 214.98 1271.11 213.43C1271.04 212.685 1271.33 211.819 1271.09 211.135C1270.79 209.134 1271.12 207.291 1271.23 205.338C1271.51 203.325 1271.73 201.14 1272.24 199.236C1272.87 196.527 1273.78 194.098 1274.53 191.73ZM1168.55 252.741C1167.85 252.985 1166.97 253.291 1166.33 253.706C1165.7 254.121 1165 254.366 1164.47 254.549C1162.26 254.94 1160.28 256.015 1158.18 256.749C1156.02 257.311 1154.17 258.728 1151.83 259.351C1149.21 260.268 1146.65 260.782 1144.09 261.869C1143.04 262.236 1141.93 262.432 1140.88 262.798C1140.01 263.104 1140.12 262.298 1139.76 261.847C1139.59 261.334 1140.17 261.322 1140.35 261.261C1141.98 260.882 1143.72 260.271 1145.3 259.721C1145.65 259.598 1145.82 259.537 1145.7 259.196C1145.58 258.854 1145.23 258.976 1145.06 259.037C1143.26 260.051 1141.39 260.321 1139.47 260.993C1139.29 260.48 1139.81 260.297 1140.16 260.175C1140.92 260.101 1141.8 259.796 1142.49 259.551C1145.06 258.464 1147.62 257.95 1150.18 256.863C1152.75 255.775 1155.43 255.029 1158.05 254.113C1158.22 254.052 1158.34 253.82 1158.63 254.1C1158.28 254.222 1157.93 254.345 1158.05 254.686C1158.11 254.857 1158.34 254.967 1158.63 254.674C1159.91 253.843 1161.43 253.696 1162.77 253.036C1164.11 252.377 1165.27 251.778 1166.67 251.289C1166.84 251.228 1167.49 251.387 1167.08 250.764C1167.08 250.764 1168.41 250.105 1168.47 250.276C1168.71 250.385 1168.66 251.935 1168.48 251.996C1167.55 252.705 1168.49 252.57 1168.55 252.741ZM1296.01 218.518C1295.19 218.421 1294.37 218.324 1293.56 218.227C1290.34 218.009 1287.25 217.559 1284.38 216.071C1283.67 215.742 1282.91 215.242 1282.26 214.51C1280.73 212.363 1279.37 210.155 1279.18 207.348C1279.06 205.859 1278.52 204.322 1278.57 202.772C1278.61 200.648 1278.07 198.538 1279.05 196.279C1279.58 196.67 1279.82 197.353 1279.88 198.097C1280.07 200.33 1280.32 202.734 1280.16 205.09C1280.06 207.043 1280.71 208.922 1281.71 210.678C1283.6 213.85 1286.71 215.448 1290.51 216.227C1291.56 216.434 1292.67 216.238 1293.83 216.213C1294.24 216.261 1294.59 216.139 1294.71 216.481C1295.18 217.274 1295.54 217.725 1296.01 218.518ZM1236.02 222.441C1235.55 221.648 1236.01 220.721 1236.35 220.025C1236.87 219.268 1237.33 218.34 1238.09 217.693C1239.19 216.924 1240.01 217.021 1240.43 218.217C1240.67 218.9 1240.96 219.754 1241.49 220.144C1242.14 220.876 1241.91 221.34 1241.56 222.036C1241.22 222.732 1241.04 223.366 1240.87 224.001C1240.93 224.172 1240.82 224.404 1240.99 224.343C1241.23 224.452 1241.34 224.22 1241.28 224.05C1241.27 222.903 1241.8 223.293 1242.51 223.622C1242.97 223.841 1243.44 224.061 1243.97 223.877C1244.38 223.926 1244.9 223.743 1245.25 223.621C1245.77 223.437 1246.07 223.718 1246.07 224.291C1245.96 225.097 1246.02 225.841 1245.91 226.647C1245.69 228.258 1245.69 228.258 1244.05 228.063C1243.82 227.954 1243.35 228.308 1243.23 227.966C1243.05 226.88 1241.88 226.331 1241.35 225.368C1240.76 224.233 1239.82 223.794 1238.48 223.88C1237.61 224.186 1236.37 223.466 1236.02 222.441ZM1242.68 233.141C1242.27 233.092 1241.98 232.812 1241.75 232.702C1241.04 232.373 1240.63 231.751 1239.76 232.056C1238.71 232.423 1237.43 232.68 1236.5 233.388C1236.21 233.681 1236.09 233.339 1236.03 233.169C1235.15 232.327 1235.08 231.009 1234.55 230.045L1234.49 229.874C1234.66 229.24 1236.93 228.445 1237.23 228.726C1237.75 229.116 1238.1 228.994 1238.69 228.981C1239.45 228.908 1240.32 228.602 1241.14 228.699C1241.55 228.748 1242.01 228.967 1242.07 228.565C1242.13 228.162 1241.43 228.406 1241.19 228.297C1240.32 228.029 1239.39 228.737 1238.57 228.64C1237.81 228.713 1237.34 228.494 1237.34 227.92C1237.16 226.834 1237.15 225.687 1237.2 224.711C1237.32 224.479 1237.32 224.479 1237.49 224.418C1238.07 224.405 1238.89 224.502 1239.48 224.49C1240.23 224.416 1240.53 224.697 1240.94 225.319C1241.35 225.941 1241.82 226.734 1242.59 227.234C1242.94 227.686 1243.06 228.027 1243.06 228.601C1242.84 229.638 1242.43 230.737 1242.68 231.994C1242.56 232.226 1242.68 232.567 1242.68 233.141ZM1251.82 237.42C1250.48 238.079 1249.26 238.507 1247.86 238.996C1247.51 239.118 1247.16 239.24 1247.22 238.838C1247.39 238.203 1246.86 237.813 1247.38 237.056C1247.49 236.824 1246.9 235.689 1246.49 235.641C1245.56 235.775 1245.56 235.202 1245.38 234.689C1245.26 234.348 1245.08 233.835 1244.79 233.555C1244.49 233.274 1244.67 233.213 1244.78 232.981C1245.54 231.76 1246.76 231.333 1247.92 230.734C1248.27 230.612 1248.8 230.428 1249.03 231.112C1249.27 231.795 1250.27 232.405 1251.2 232.27C1251.38 232.209 1251.61 232.319 1251.84 232.428C1253.6 232.964 1254.08 234.331 1254.73 235.636C1254.84 235.978 1254.73 236.21 1254.38 236.332C1253.16 236.76 1252.05 237.529 1250.76 236.639C1250.76 236.639 1250.76 236.639 1250.53 236.529C1249.36 236.554 1248.89 235.761 1248.42 234.968C1248.24 234.456 1247.36 234.188 1246.9 234.542C1246.72 234.603 1246.55 234.664 1246.61 234.835C1246.67 235.006 1246.84 234.945 1247.01 234.884C1247.54 234.7 1248.01 234.92 1248.19 235.432C1248.72 236.396 1249.48 237.47 1251 237.322C1251.35 237.2 1251.76 237.249 1251.82 237.42ZM1281.11 198.817C1281.7 199.378 1282.11 200 1282.7 200.561C1282.76 200.732 1282.82 200.903 1282.82 200.903C1282.65 201.537 1282.71 202.282 1282.71 202.855C1282.91 205.662 1283.45 208.347 1285.51 210.31C1286.15 211.042 1286.97 211.713 1287.91 212.152C1289.55 212.92 1291.6 213.163 1293.35 213.699C1293.76 213.748 1294.47 214.65 1294.41 215.053C1294.3 215.285 1294.12 215.346 1294.06 215.175C1290.67 215.018 1287.46 214.8 1284.82 212.276C1283 210.422 1281.46 208.274 1281.33 205.638C1281.26 203.747 1281.19 201.855 1281.12 199.964C1281.06 199.793 1281.12 199.39 1281.11 198.817ZM1233.15 211.948C1233.85 211.703 1235.72 212.581 1235.9 213.093C1235.96 213.264 1235.96 213.264 1235.78 213.325C1235.26 214.082 1236.09 214.753 1236.32 214.863C1237.43 215.24 1237.44 216.388 1238.2 216.888C1238.43 216.997 1238.32 217.229 1238.14 217.29C1237.16 217.828 1236.58 218.987 1235.94 219.976C1235.65 220.269 1235.48 220.33 1235.18 220.05C1234.72 219.83 1234.19 219.44 1233.95 219.33C1232.9 219.124 1231.97 218.685 1232.02 217.708C1232.07 216.732 1231.6 216.513 1230.78 216.415C1230.2 216.428 1229.97 216.318 1230.31 215.622C1230.6 215.329 1230.31 215.049 1230.01 214.768C1229.78 214.659 1229.66 214.317 1230.01 214.195C1231.11 213.425 1232.22 212.656 1233.15 211.948ZM1292.76 213.138C1286.34 212.128 1283.04 208.872 1283.17 201.354C1283.35 201.293 1283.41 201.464 1283.47 201.635C1284.76 203.098 1286.05 204.562 1287.17 206.087C1287.88 206.99 1288.47 208.124 1289.29 208.795C1291.05 209.905 1292.17 211.43 1292.76 213.138ZM1290.34 207.855C1291.79 207.537 1293.01 206.536 1294.7 206.327C1296.34 205.948 1298.03 205.74 1299.54 205.019C1299.89 204.897 1300.48 204.884 1300.53 204.482C1300.7 203.847 1301.11 203.896 1301.7 203.883C1302.04 203.761 1302.28 203.871 1302.63 203.748C1304.26 202.796 1306.06 202.355 1307.58 201.635C1308.8 201.207 1310.02 200.779 1311.48 201.035C1309.5 201.536 1307.93 202.66 1306.07 202.929C1305.54 203.112 1304.96 203.125 1304.55 203.65C1304.38 203.711 1304.26 203.943 1304.32 204.114C1304.38 204.284 1304.56 204.223 1304.67 203.991C1305.14 203.637 1305.84 203.393 1306.42 203.38C1308.23 202.94 1309.74 202.219 1311.25 201.499C1311.78 201.315 1312.3 201.132 1312.83 201.522C1311.9 202.23 1311.09 202.707 1309.98 202.903C1309.05 203.037 1308.35 203.282 1307.59 203.929C1306.31 204.759 1304.74 205.309 1303.23 206.03C1301.54 206.812 1299.79 207.997 1297.69 207.583C1297.28 207.534 1296.93 207.656 1296.58 207.779C1298.33 207.168 1300.08 206.557 1301.71 205.604C1301.88 205.543 1302.29 205.591 1302.17 205.25C1302.05 204.908 1301.7 205.03 1301.53 205.091C1301.35 205.152 1301.18 205.214 1301.18 205.214C1299.14 206.118 1297.22 206.79 1295.06 207.352C1294.89 207.413 1294.36 207.597 1294.36 207.597C1294.19 208.231 1293.61 208.244 1293.26 208.366C1292.91 208.488 1292.56 208.611 1292.21 208.733C1291.57 209.148 1290.99 209.161 1290.69 208.306C1291.33 207.891 1292.09 207.818 1292.73 207.402C1291.97 207.476 1291.15 207.952 1290.34 207.855ZM1239.78 216.911C1241 217.057 1241.52 216.3 1241.81 215.434C1241.87 215.031 1242.16 214.738 1242.45 214.445C1242.56 214.213 1242.68 213.981 1243.21 214.371C1243.79 214.932 1244.38 214.92 1244.96 214.334C1245.25 214.041 1245.71 213.686 1246 213.393C1247.11 212.624 1247.34 212.734 1247.41 214.052C1247.47 214.796 1247.59 215.711 1248.01 216.334C1248.36 216.785 1248.71 217.236 1247.66 217.029C1247.43 216.92 1247.31 217.152 1247.02 217.445C1246.44 218.031 1245.68 218.678 1245.34 219.374C1244.7 220.362 1243.77 220.497 1242.84 220.632C1241.84 220.596 1241.78 219.851 1241.43 219.4C1241.07 218.375 1240.89 217.289 1239.78 216.911ZM1250.44 222.764C1250.5 222.934 1250.62 223.276 1250.44 223.337C1250.1 224.033 1248.23 224.302 1247.64 223.741C1247.35 223.461 1246.88 223.241 1246.47 223.193C1245.65 223.096 1244.78 223.401 1244.02 223.475C1243.09 223.609 1242.33 223.109 1241.8 222.719C1241.56 222.609 1242.32 221.962 1242.32 221.389C1242.37 220.986 1242.49 220.754 1243.07 220.742C1244.41 220.655 1245.52 219.886 1246.09 218.726C1246.32 218.263 1246.96 217.847 1247.37 217.322C1247.66 217.029 1248.07 217.078 1248.48 217.127C1248.89 217.175 1248.66 217.639 1248.72 217.81C1248.9 218.896 1249.02 219.811 1249.38 220.836C1249.5 221.178 1249.27 221.642 1249.73 221.861C1250.2 222.08 1250.15 222.483 1250.44 222.764ZM1240.8 211.956C1239.58 212.957 1238.12 212.702 1236.83 212.959C1236.66 213.02 1236.48 213.081 1236.19 212.8C1235.95 212.117 1235.31 211.959 1234.66 211.8C1234.2 211.581 1233.55 211.423 1234.07 210.666C1234.36 210.373 1234.19 209.86 1233.95 209.751C1233.6 209.299 1233.95 209.177 1234.24 208.884C1235.58 208.224 1237.56 208.296 1238.68 209.248C1239.5 209.919 1240.61 210.296 1240.5 211.675C1240.5 211.675 1240.74 211.785 1240.8 211.956ZM1250.56 223.679C1250.8 224.362 1251.15 224.814 1251.33 225.326C1251.51 225.838 1251.57 226.583 1251.75 227.095C1251.99 227.779 1251.58 227.73 1251.17 227.681C1250.53 227.523 1250.18 227.645 1249.77 228.17C1249.66 228.402 1249.54 228.634 1249.43 228.866C1249.2 229.33 1248.73 229.684 1248.27 230.038C1247.74 230.222 1247.74 229.648 1247.45 229.367C1247.21 229.258 1246.92 228.977 1246.68 228.867C1246.16 228.477 1246.04 228.136 1246.21 227.501C1246.61 226.402 1246.78 225.194 1246.42 223.596C1247.88 224.425 1249.29 225.083 1250.56 223.679ZM1236.86 207.967C1238.43 207.417 1240.06 207.038 1241.52 206.72C1241.87 206.598 1242.11 206.708 1242.34 206.817C1243.28 207.256 1243.4 208.172 1244.05 208.903C1244.4 209.355 1244.87 210.148 1243.88 210.685C1243.71 210.746 1243.65 211.149 1243.48 211.21C1243.07 211.735 1243.31 212.418 1242.9 212.943C1242.79 212.602 1242.44 212.724 1242.2 212.614C1241.67 212.224 1240.8 211.956 1240.91 211.15C1240.79 210.235 1240.61 209.723 1239.55 209.516C1239.38 209.577 1239.32 209.406 1239.26 209.235C1238.61 208.503 1237.85 208.003 1236.86 207.967ZM1245.91 236.227C1245.39 236.41 1244.98 236.361 1244.57 236.313C1243.58 236.277 1242.65 236.411 1242.13 237.168C1241.49 238.157 1241.32 239.365 1240.45 240.244C1240.45 240.244 1240.34 240.476 1240.4 240.647C1240.52 240.989 1240.57 241.16 1240.05 241.343C1239.7 241.465 1239.41 241.185 1239.35 241.014C1238.99 240.562 1238.82 240.05 1238.4 239.428C1237.99 238.806 1237.58 238.183 1238.57 237.646C1238.74 237.585 1238.86 237.353 1238.97 237.121C1239.55 236.535 1239.6 235.559 1240.65 235.192C1241.53 234.886 1242.28 234.239 1243.33 234.446C1243.57 234.556 1243.68 234.324 1243.86 234.263C1244.26 233.738 1244.56 234.018 1244.68 234.36C1244.91 235.043 1245.15 235.727 1245.91 236.227ZM1255.25 235.453C1255.19 234.709 1254.48 234.38 1254.31 233.867C1253.95 232.842 1252.25 231.903 1251.02 231.758C1250.26 231.831 1249.74 231.441 1249.5 230.758C1249.26 230.074 1249.6 228.805 1250.18 228.219C1250.47 227.926 1252.22 227.888 1252.52 228.169C1253.22 229.072 1254.16 230.084 1254.87 230.987C1255.93 232.341 1256.23 233.769 1255.25 235.453ZM1241.16 241.147C1241.04 240.806 1240.92 240.464 1241.27 240.342C1241.85 239.756 1242.14 238.889 1242.42 238.022C1242.59 237.388 1243.06 237.034 1243.76 236.789C1244.63 236.484 1245.39 236.984 1246.27 236.678C1246.27 236.678 1246.5 236.788 1246.56 236.959C1246.51 237.361 1246.8 237.642 1246.92 237.984C1247.22 238.838 1246.75 239.765 1245.88 240.071C1244.31 240.621 1242.67 240.426 1241.16 241.147ZM1236.63 227.018C1236.1 226.627 1235.75 226.176 1235.28 225.956C1234.4 225.115 1233.57 223.87 1231.82 223.908C1231.65 223.969 1231.41 223.859 1231.01 223.811C1232.05 222.871 1232.86 221.821 1233.67 220.771C1233.96 220.478 1234.02 220.075 1234.49 220.294C1234.95 220.514 1235.54 220.501 1235.43 221.307C1235.31 222.112 1235.14 222.747 1235.79 223.479C1236.2 224.101 1236.85 224.833 1236.56 225.7C1236.62 225.87 1236.57 226.273 1236.63 227.018ZM1242.92 233.824C1242.22 234.068 1241.58 234.484 1240.88 234.728C1240.18 234.973 1239.55 235.388 1239.2 236.084C1238.97 236.547 1238.56 237.072 1238.27 237.365C1238.16 237.597 1237.87 237.89 1237.63 237.781C1237.4 237.671 1237.11 237.39 1237.22 237.159C1237.1 236.817 1237.57 236.463 1236.75 236.366C1236.17 236.378 1236.15 234.084 1236.79 233.668C1237.72 232.96 1238.89 232.935 1239.88 232.398C1240.23 232.276 1240.34 232.617 1240.75 232.666C1241.52 233.166 1241.93 233.788 1242.92 233.824ZM1240.63 212.591C1241.26 212.175 1241.44 212.688 1241.91 212.907C1242.85 213.346 1242.91 213.517 1242.21 214.335C1242.1 214.567 1241.92 214.628 1241.81 214.86C1241.35 215.788 1241 216.483 1239.66 216.57C1238.9 216.643 1238.43 216.424 1238.08 215.972C1237.72 215.521 1237.72 214.947 1237.08 214.789C1236.61 214.57 1236.38 214.46 1236.61 213.996C1236.6 213.423 1237.01 213.471 1237.42 213.52C1238.47 213.153 1239.7 213.299 1240.63 212.591ZM1243.15 232.787C1242.91 231.53 1242.66 230.273 1243.24 229.113C1243.36 228.881 1243.41 228.479 1243.82 228.527C1244.99 228.502 1246.1 228.306 1247.04 229.319C1247.68 230.051 1247.86 230.563 1247.16 230.808C1246 231.406 1245.01 231.944 1244.2 232.994C1243.91 233.287 1243.27 233.128 1243.15 232.787ZM1229.73 216.208C1230.2 216.428 1230.61 216.476 1231.08 216.696C1231.31 216.806 1231.72 216.854 1231.66 217.257C1231.56 218.636 1232.49 219.075 1233.49 219.685C1233.72 219.794 1233.96 219.904 1233.67 220.197C1233.03 221.186 1232.22 222.236 1231.29 222.944C1230.52 220.723 1229.98 218.612 1229.73 216.208ZM1231.71 224.14C1232.59 224.408 1233.52 224.273 1233.93 224.895C1234.4 225.688 1235.4 226.298 1235.99 226.859C1236.28 227.14 1236.52 227.249 1236.63 227.591C1236.93 227.872 1236.87 228.274 1236.29 228.287C1235.76 228.47 1235.01 228.544 1234.6 229.069C1234.2 229.594 1233.9 229.313 1233.78 228.972C1233.49 228.117 1233.13 227.092 1232.83 226.238C1232.42 225.616 1231.83 225.055 1231.71 224.14ZM1243.8 207.647C1245.33 208.646 1246.27 210.232 1246.81 211.77C1246.87 211.941 1247.16 212.221 1246.64 212.405C1245.76 212.71 1245.18 213.296 1244.6 213.882C1244.31 214.175 1243.96 214.298 1243.5 214.078C1243.03 213.859 1242.91 213.517 1243.14 213.053C1243.25 212.821 1243.31 212.418 1243.42 212.187C1243.66 211.723 1243.59 210.978 1244.29 210.734C1244.93 210.319 1244.81 209.977 1244.63 209.464C1244.57 208.72 1244.22 208.269 1243.8 207.647ZM1232.32 209.556C1232.72 209.605 1233.13 209.08 1233.42 209.36C1233.72 209.641 1233.84 209.982 1233.78 210.385C1233.72 210.788 1233.61 211.02 1233.32 211.313C1232.21 212.082 1231.11 212.852 1230.01 213.621C1229.83 213.682 1229.72 213.914 1229.6 213.573C1229.42 213.06 1229.07 212.609 1229.12 212.206C1229.12 211.632 1229.4 210.766 1230.28 210.46C1230.8 210.277 1231.5 210.032 1232.32 209.556ZM1262.38 199.619C1262.6 198.582 1262.83 197.544 1262.47 196.52C1262.24 195.836 1262.23 195.263 1261.99 194.579C1261.93 194.409 1261.88 194.238 1262.05 194.177C1262.4 194.054 1263.16 194.554 1263.46 194.835C1263.99 195.799 1263.64 197.068 1263.65 198.215C1263.83 198.728 1263.72 199.533 1262.38 199.619ZM1187.47 235.585C1188.11 235.743 1188.35 235.853 1188.47 236.195C1188.77 238.196 1188.14 240.332 1188.1 242.455C1188.04 242.858 1187.63 242.809 1187.46 242.87C1187.11 242.993 1187.16 242.59 1187.28 242.358C1187.39 241.553 1187.5 240.747 1187.61 239.942C1187.72 238.562 1188.76 237.049 1187.47 235.585ZM1191.37 251.277C1190.02 250.216 1189.07 249.203 1188.31 248.13C1188.25 247.959 1187.72 247.569 1188.25 247.385C1188.77 247.202 1189.18 246.677 1189.65 247.47C1190.06 248.666 1190.66 249.801 1191.37 251.277ZM1185.6 244.861L1185.54 244.69C1186.18 244.275 1187.12 244.14 1187.76 243.725C1187.93 243.664 1187.93 243.664 1187.99 243.834C1188.17 244.347 1188.41 245.03 1188.35 245.433C1188.29 245.836 1187.65 245.677 1187.3 245.799C1186.95 245.922 1186.6 246.044 1186.02 246.056C1185.84 246.118 1185.38 246.472 1185.38 245.898C1185.26 245.556 1185.61 245.434 1185.9 245.141C1186.42 244.958 1186.94 244.775 1187.47 244.591C1187 244.372 1186.65 244.494 1186.48 244.555C1186.36 244.787 1186.01 244.909 1185.6 244.861ZM1296.29 208.072C1294.72 208.622 1293.27 209.513 1291.57 209.722C1293.2 208.769 1294.83 208.39 1296.29 208.072ZM1254.57 229.559C1252.57 227.766 1252.1 226.973 1252.15 225.423C1253.32 226.545 1253.57 228.376 1254.57 229.559ZM1188.76 246.055C1188.07 246.873 1187.37 247.117 1186.44 247.252C1186.26 247.313 1186.09 247.374 1186.03 247.204C1185.91 246.862 1186.32 246.911 1186.49 246.849C1187.07 246.263 1187.83 246.19 1188.76 246.055ZM1307.71 204.271C1308.64 203.562 1309.69 203.196 1310.8 203C1309.93 203.879 1308.7 203.733 1307.71 204.271ZM1229.37 214.61C1229.66 214.89 1230.13 215.11 1230.08 215.513C1230.08 215.513 1229.96 215.745 1229.73 215.635C1229.26 215.415 1229.49 214.952 1229.37 214.61ZM1184.57 265.534C1184.62 265.132 1184.8 265.07 1185.09 264.777C1184.97 265.009 1185.09 265.351 1184.57 265.534Z" fill="#040404"/>
<path d="M1184.89 265.736C1185.48 265.724 1185.36 265.38 1185.41 264.976C1185.24 265.037 1184.95 265.331 1184.89 265.736Z" fill="#040404"/>
<path d="M1276.51 197.681C1276.62 197.447 1276.56 197.275 1276.68 197.041C1276.68 197.041 1276.68 197.041 1276.44 196.93C1276.56 197.275 1276.45 197.509 1276.51 197.681Z" fill="#040404"/>
<path d="M1276.79 196.807L1276.68 197.04C1276.68 197.04 1276.68 197.04 1276.91 197.151C1276.68 197.04 1276.85 196.979 1276.79 196.807Z" fill="#040404"/>
<path d="M1246.11 207.337L1245.93 207.398C1245.93 207.398 1245.99 207.57 1246.11 207.337C1245.99 207.57 1246.17 207.508 1246.11 207.337Z" fill="#040404"/>
<path d="M1185.86 264.037C1185.86 264.037 1185.69 264.098 1185.86 264.037C1185.92 264.207 1185.86 264.037 1185.86 264.037Z" fill="#040404"/>
<path d="M1185.22 234.265C1185.22 234.265 1185.28 234.437 1185.22 234.265C1185.39 234.204 1185.22 234.265 1185.22 234.265C1185.16 234.093 1185.22 234.265 1185.22 234.265Z" fill="#040404"/>
<path d="M1210.76 232.869C1209.87 231.448 1209.45 229.671 1208.74 228.188C1208.5 227.502 1207.79 227.171 1207.26 226.779C1205.43 224.917 1203.14 224.562 1200.45 225.887C1198.93 226.611 1197.41 227.335 1196.07 228.574C1195.49 229.162 1195.55 229.91 1195.15 230.437C1195.03 230.67 1195.27 230.781 1195.44 230.719C1196.26 230.241 1197.2 230.106 1197.48 229.235C1197.72 228.769 1198.07 228.646 1198.42 228.524C1199.88 227.628 1201.34 226.733 1203.04 227.1C1204.51 227.356 1206.33 227.49 1207.45 228.446C1208.57 229.402 1208.99 230.603 1209.47 231.975C1209.7 232.085 1210.06 232.539 1210.76 232.869Z" fill="#040404"/>
<path d="M1205.49 234.225C1206.03 235.781 1206.75 237.275 1207.47 238.769C1208.19 240.264 1209.2 241.461 1210.68 242.301C1211.46 242.807 1211.82 243.844 1211.94 244.77C1212.18 245.462 1212.6 246.092 1212.08 246.857C1211.96 247.092 1212.14 247.03 1212.2 247.203C1212.37 247.141 1212.55 247.079 1212.49 246.907C1212.72 245.857 1212.95 244.807 1212.76 243.708C1212.4 242.091 1211.33 241.301 1210.02 240.399C1208.77 239.671 1208.47 238.226 1207.69 237.14C1207.21 236.337 1206.91 235.473 1206.43 234.67C1206.37 234.497 1206.08 234.213 1205.49 234.225Z" fill="#040404"/>
<path d="M1206.33 249.824C1206.27 249.653 1206.03 249.542 1205.86 249.604C1204.8 249.972 1203.92 249.703 1202.93 249.666C1201.7 249.52 1200.58 249.717 1199.52 248.933C1199.29 248.823 1198.88 248.774 1198.53 248.897C1197.18 248.983 1196.24 248.543 1195.06 247.992C1194.36 247.662 1193.65 247.331 1193.12 246.94C1192.89 246.829 1192.71 246.891 1192.54 246.952C1192.42 247.185 1192.48 247.356 1192.72 247.467C1193.78 248.25 1194.54 249.327 1195.72 249.878C1196.49 250.38 1197.48 250.416 1198.42 250.281C1200.41 249.778 1202.52 250.193 1204.51 250.266C1204.92 250.315 1205.51 250.302 1205.92 250.351C1206.27 250.228 1206.39 249.995 1206.33 249.824Z" fill="#040404"/>
<path d="M1200.56 242.3C1200.56 241.722 1200.15 241.673 1199.67 241.452C1198.49 240.899 1197.84 240.161 1197.66 239.066C1197.18 237.689 1196 237.135 1194.46 236.705C1194.23 236.595 1193.81 236.546 1193.64 236.607C1192.81 236.509 1192.28 236.116 1191.86 235.489C1191.8 235.316 1191.57 235.206 1191.45 235.44C1191.28 235.501 1191.34 235.673 1191.57 235.784C1192.4 237.038 1193.47 237.825 1194.83 238.317C1196.18 238.808 1196.78 239.952 1197.67 240.8C1198.61 241.243 1199.15 242.215 1200.56 242.3Z" fill="#040404"/>
<path d="M1193.26 227.588C1192.8 227.944 1192.04 228.594 1191.63 229.122C1190.58 230.643 1189.95 232.213 1189.37 233.955C1189.43 234.126 1189.08 234.249 1189.32 234.359C1189.55 234.47 1189.67 234.237 1189.78 234.004C1190.72 233.292 1190.95 232.249 1191.41 231.317C1192.11 229.919 1192.86 228.692 1193.85 227.576C1194.03 227.514 1193.97 227.343 1193.91 227.171C1193.79 227.404 1193.56 227.294 1193.26 227.588Z" fill="#040404"/>
<path d="M1202.31 238.401C1202.25 238.228 1202.19 238.056 1201.89 237.773C1200.94 236.75 1200.28 235.431 1199.69 234.285C1199.09 233.14 1198.85 233.029 1197.55 233.288C1197.38 233.349 1197.14 233.239 1197.2 233.411L1197.32 233.756C1198.92 234.36 1199.4 235.74 1200.23 236.997C1200.65 237.625 1201.25 238.192 1201.9 238.931C1201.96 239.103 1202.14 239.042 1202.14 239.042C1202.37 238.573 1202.31 238.401 1202.31 238.401Z" fill="#040404"/>
<path d="M1214.78 243.409C1214.91 244.336 1215.56 245.077 1215.51 246.065C1215.46 246.473 1215.46 247.053 1214.99 247.412C1214.81 247.473 1214.69 247.708 1214.93 247.819C1215.17 247.93 1215.29 247.696 1215.29 247.696C1215.81 246.93 1215.99 246.287 1215.68 245.423C1215.38 243.397 1214.36 241.618 1213.99 239.419C1213.93 239.246 1214.04 239.011 1213.63 238.962C1213.27 239.085 1213.4 239.431 1213.46 239.604C1214.12 240.926 1214.36 242.198 1214.78 243.409Z" fill="#040404"/>
<path d="M1204.83 252.312C1204.24 251.75 1203.78 252.105 1203.25 252.289C1200.51 252.865 1197.82 253.037 1195.24 251.828C1195.18 252.232 1195.42 252.342 1195.65 252.452C1197.53 253.331 1199.81 253.11 1201.91 252.95C1203.02 252.754 1203.9 252.447 1204.83 252.312Z" fill="#040404"/>
<path d="M1208.71 246.103C1207.87 244.845 1207.21 243.525 1205.85 242.453C1205.38 242.231 1205.02 241.775 1204.66 241.318C1204.6 241.146 1204.54 240.973 1204.42 241.207C1204.25 241.269 1204.31 241.442 1204.37 241.614C1204.66 241.898 1204.96 242.182 1205.26 242.465C1206.56 243.365 1207.4 244.623 1208.23 245.881C1208.35 246.226 1208.47 246.572 1208.36 246.806C1208.24 247.04 1208.06 247.102 1208.3 247.213C1208.54 247.324 1208.66 247.09 1208.77 246.855C1208.95 246.794 1208.83 246.448 1208.71 246.103Z" fill="#040404"/>
<path d="M1199.95 229.534C1199.77 229.596 1199.83 229.767 1199.83 229.767C1199.89 229.939 1199.89 229.939 1200.07 229.877C1200.24 229.816 1200.3 229.988 1200.48 229.926C1202.47 229.423 1204.06 230.598 1205.64 231.198C1205.88 231.308 1205.88 231.308 1206.11 231.418C1206.35 231.529 1206.41 231.7 1206.7 231.406C1206.82 231.173 1206.58 231.063 1206.4 231.124C1205.23 230.573 1204.05 230.023 1202.7 229.533C1201.88 229.435 1200.83 229.804 1199.95 229.534Z" fill="#040404"/>
<path d="M1191.47 239.313C1190.77 240.716 1191.13 241.75 1192.43 242.648C1193.26 243.325 1194.56 243.645 1195.5 244.087C1195.74 244.198 1195.92 244.137 1195.86 243.964C1195.97 243.73 1195.8 243.792 1195.56 243.681C1194.85 243.349 1194.14 243.017 1193.43 242.685C1192.19 241.959 1191.3 241.11 1191.59 239.658C1191.76 239.596 1191.53 239.485 1191.47 239.313Z" fill="#040404"/>
<path d="M1213.14 238.126C1212.95 237.03 1211.95 236.414 1211.29 235.675C1211 235.392 1210.7 235.109 1210.4 234.825C1210.34 234.653 1210.17 234.715 1209.99 234.776C1209.81 234.838 1209.87 235.01 1210.05 234.949C1211.29 235.675 1212.07 236.759 1212.84 237.843C1212.79 238.25 1212.96 238.188 1213.14 238.126Z" fill="#040404"/>
<path d="M1212.68 251.343C1212.62 251.172 1212.62 251.172 1212.44 251.233C1211.33 251.429 1210.16 250.879 1209.11 251.247C1208.94 251.308 1208.7 251.198 1208.76 251.369C1208.65 251.602 1209.06 251.65 1209.23 251.589C1210.34 251.393 1211.39 251.6 1212.39 251.636C1212.56 251.575 1212.8 251.685 1212.68 251.343Z" fill="#040404"/>
<path d="M1259.76 216.933C1260.11 216.81 1260.05 216.638 1259.99 216.465C1260.27 213.856 1260.61 211.42 1261.89 208.847C1262.12 208.379 1262.11 207.801 1262.11 207.223C1262.17 206.817 1261.81 206.361 1262.4 205.77C1262.69 205.475 1262.28 205.426 1262.04 205.315C1261.8 205.205 1261.63 205.266 1261.51 205.5C1261.34 206.14 1260.99 206.841 1260.88 207.654C1260.59 209.106 1259.95 210.681 1259.91 212.244C1259.97 213.573 1259.45 214.915 1259.52 216.244C1259.58 216.416 1259.46 216.65 1259.76 216.933Z" fill="#040404"/>
<path d="M1265.46 233.083C1263.19 229.409 1261.62 225.487 1260.64 221.552C1259.76 223.024 1263.56 232.192 1265.46 233.083Z" fill="#040404"/>
<path d="M1254.95 218.668C1254.96 219.831 1255.5 220.808 1255.69 221.909C1255.87 223.01 1256.41 223.987 1256.42 225.149C1256.48 225.323 1256.54 225.496 1256.6 225.669C1256.9 225.953 1256.9 226.535 1257.26 226.411C1257.79 226.226 1257.25 225.83 1257.13 225.483C1257 223.393 1256.1 221.377 1255.43 219.472C1255.49 219.064 1255.54 218.656 1254.95 218.668Z" fill="#040404"/>
<path d="M1266.28 233.798C1266.05 234.267 1266.17 234.613 1266.41 234.724C1267.06 235.465 1267.6 236.441 1268.08 237.243C1268.44 237.7 1268.62 238.219 1268.45 238.861C1268.33 239.096 1268.57 239.207 1268.74 239.145C1268.92 239.084 1269.1 239.022 1269.21 238.787C1269.15 238.614 1269.09 238.441 1269.03 238.268C1268.55 236.885 1267.95 235.737 1266.82 234.773C1266.7 234.427 1266.58 234.082 1266.28 233.798Z" fill="#040404"/>
<path d="M1255.56 206.39C1254.97 206.402 1254.74 206.87 1254.51 207.338C1253.87 208.913 1254 210.415 1254.12 211.916C1254.18 212.088 1254.25 212.26 1254.42 212.199C1254.6 212.137 1254.71 211.903 1254.65 211.731C1254.71 211.325 1254.65 211.153 1254.53 210.808C1254.64 209.418 1254.69 207.855 1255.56 206.39Z" fill="#040404"/>
<path d="M1260.94 235.255C1260.93 233.512 1260.38 231.955 1259.48 230.521C1259.42 230.347 1259.19 230.236 1258.89 230.533C1258.78 230.768 1258.95 230.706 1259.01 230.879C1259.67 231.621 1260.03 232.659 1260.22 233.759C1260.4 234.279 1260.58 234.798 1260.94 235.255Z" fill="#040404"/>
<path d="M1229.3 239.135C1228.59 239.381 1227.84 240.608 1228.25 241.234C1228.55 242.093 1229.85 242.412 1230.9 242.043C1231.78 241.736 1232.01 241.269 1231.41 239.551C1231.11 238.693 1230.53 238.705 1229.3 239.135Z" fill="#040404"/>
<path d="M1183.57 234.983C1183.57 234.983 1183.33 234.872 1183.27 234.7C1180.39 233.204 1177.38 231.364 1174.61 229.634C1173.9 229.303 1173.02 229.033 1172.43 228.469C1172.37 228.297 1172.01 228.42 1171.9 228.653C1171.55 229.353 1171.03 230.114 1171.15 231.035C1171.09 231.44 1171.57 231.661 1171.98 231.71C1175.39 233.022 1178.81 234.334 1182.33 234.836C1182.57 234.946 1182.98 234.995 1183.22 235.106C1183.51 235.388 1183.69 235.326 1183.57 234.983Z" fill="#040404"/>
<path d="M1179.93 247.024C1177.19 247.599 1174.45 248.747 1171.48 248.639C1171.07 248.59 1170.95 248.822 1170.9 249.225C1170.96 249.969 1171.37 250.591 1171.78 251.213C1171.9 251.555 1172.31 251.604 1172.6 251.311C1173.77 250.712 1174.99 250.284 1175.98 249.747C1177.67 248.965 1179.24 248.415 1180.87 247.463C1181.22 247.34 1181.68 246.986 1182.03 246.864C1182.21 246.803 1182.5 246.51 1182.44 246.339C1182.38 246.168 1182.2 246.229 1181.85 246.352C1181.33 246.535 1180.63 246.779 1179.93 247.024Z" fill="#040404"/>
<path d="M1170.36 237.138C1170.54 237.652 1170.89 237.53 1171.3 237.578C1173.3 237.651 1175.35 237.895 1177.35 237.968C1178.58 238.114 1179.87 237.856 1180.93 238.64C1181.16 238.75 1181.28 238.518 1181.39 238.285C1181.51 238.052 1181.39 237.709 1180.98 237.66C1179.69 237.342 1178.57 236.962 1177.34 236.816C1175.22 236.4 1173.11 235.984 1171.46 234.637C1171.17 234.355 1170.75 234.306 1170.7 234.711C1170.59 235.52 1170.47 236.329 1170.13 237.027C1170.48 236.905 1170.54 237.076 1170.36 237.138Z" fill="#040404"/>
<path d="M1169.91 241.964C1170.03 242.307 1170.15 242.649 1170.5 242.527C1170.91 242.576 1171.14 242.686 1171.49 242.563C1174.47 242.097 1177.34 241.863 1180.44 241.739C1180.61 241.678 1180.79 241.616 1180.96 241.555C1181.31 241.433 1181.49 241.371 1181.55 240.968C1181.43 240.625 1181.08 240.748 1180.9 240.809C1179.38 240.957 1177.98 240.872 1176.51 240.616C1175.05 240.359 1173.76 240.042 1172.29 239.786C1170.36 239.31 1170.18 239.371 1170.02 241.157C1170.02 241.732 1169.91 241.964 1169.91 241.964Z" fill="#040404"/>
<path d="M1185.18 253.598C1184.54 254.014 1183.72 254.492 1183.14 255.079C1181.28 256.498 1179.18 257.808 1177.02 258.947C1176.67 259.069 1176.15 259.253 1176.15 259.828C1176.39 260.512 1176.74 260.965 1177.45 261.294C1177.92 261.514 1178.21 261.221 1178.5 260.927C1179.37 260.046 1180.36 258.933 1181.23 258.052C1182.51 256.645 1183.9 255.58 1185.42 254.283C1185.53 254.05 1185.88 253.928 1185.76 253.586C1185.47 253.304 1185.35 253.537 1185.18 253.598Z" fill="#040404"/>
<path d="M1180.58 251.685C1178.66 252.357 1177.03 253.31 1175.05 253.812C1173.24 254.252 1173.3 254.423 1173.84 255.961C1174.19 256.986 1174.43 257.096 1175.3 256.217C1177.1 254.629 1179.31 253.663 1181.4 252.356C1181.87 252.002 1182.39 251.818 1182.86 251.464C1183.03 251.403 1183.38 251.28 1183.09 251C1182.97 250.658 1182.62 250.78 1182.45 250.841C1181.98 251.196 1181.28 251.44 1180.58 251.685Z" fill="#040404"/>
<path d="M1182.84 242.489C1182.25 242.501 1181.5 242.575 1180.74 242.648C1179.04 242.857 1177.18 243.126 1175.49 243.335C1175.31 243.396 1175.08 243.286 1175.02 243.689C1175.08 243.86 1175.26 243.798 1175.49 243.908C1177.88 243.455 1180.33 243.173 1182.67 243.123C1182.84 243.062 1183.02 243.001 1183.19 242.94C1183.37 242.879 1183.66 242.586 1183.42 242.476C1183.24 241.964 1183.19 242.367 1182.84 242.489Z" fill="#040404"/>
<path d="M1177.41 257.235C1178.81 256.171 1180.27 255.278 1181.49 254.275C1181.66 254.214 1181.78 253.981 1181.54 253.872C1181.48 253.701 1181.31 253.762 1181.19 253.994C1179.91 254.826 1178.81 255.596 1177.59 256.599C1177.47 256.831 1177.3 256.893 1177.41 257.235Z" fill="#040404"/>
<path d="M1191.71 255.001C1191.12 255.013 1191.07 255.418 1190.95 255.651C1190.43 256.989 1189.79 257.983 1189.21 259.149C1189.1 259.383 1188.92 259.444 1189.16 259.554C1189.39 259.665 1189.33 259.493 1189.51 259.431C1190.38 257.971 1191.07 256.572 1191.71 255.001Z" fill="#040404"/>
<path d="M1179.44 250.698C1180.48 250.332 1181.59 250.136 1182.46 249.831C1182.64 249.77 1182.99 249.648 1182.87 249.307C1182.81 249.136 1182.46 249.258 1182.28 249.319C1181.24 249.685 1180.13 249.881 1179.38 250.527C1179.38 250.527 1179.38 250.527 1179.44 250.698Z" fill="#040404"/>
<path d="M1185.12 251.259C1184.13 251.797 1183.2 252.506 1182.27 253.215C1182.15 253.448 1181.8 253.57 1181.92 253.912C1182.21 254.193 1182.27 253.79 1182.38 253.558C1183.14 252.909 1184.31 252.31 1185.06 251.662C1185.24 251.601 1185.65 251.65 1185.53 251.307C1185.64 251.075 1185.29 251.198 1185.12 251.259Z" fill="#040404"/>
<path d="M1176.18 230.24C1177.71 231.246 1179.48 231.785 1180.89 232.447C1181.13 232.557 1181.13 232.557 1181.3 232.496C1181.42 232.263 1181.18 232.152 1181.01 232.214C1180.06 231.772 1179.12 231.331 1178.24 231.061C1177.77 230.841 1177.12 230.681 1176.76 230.227C1176.7 230.056 1176.47 229.945 1176.18 230.24Z" fill="#040404"/>
<path d="M1174.94 245.658C1174.77 245.719 1174.59 245.78 1174.48 246.012L1174.36 246.244C1174.42 246.415 1174.6 246.354 1174.6 246.354C1175.64 245.987 1176.93 245.73 1178.1 245.705C1178.27 245.644 1178.44 245.583 1178.39 245.412C1178.33 245.241 1178.15 245.303 1178.15 245.303C1176.98 245.328 1176.05 245.462 1174.94 245.658Z" fill="#040404"/>
<path d="M1184.14 259.166C1184.96 258.112 1185.77 257.057 1186.76 255.942C1186.76 255.942 1186.88 255.709 1186.64 255.599C1186.58 255.427 1186.41 255.488 1186.29 255.721C1185.48 256.776 1184.43 257.72 1183.85 258.885C1184.08 258.995 1184.14 259.166 1184.14 259.166Z" fill="#040404"/>
<path d="M1184.08 239.911C1182.91 239.362 1181.45 239.68 1180.28 239.705C1181.45 240.255 1182.73 239.997 1184.08 239.911Z" fill="#040404"/>
<path d="M1173.9 233.755C1173.84 234.16 1174.25 234.209 1174.25 234.209C1175.14 234.478 1175.96 234.576 1176.84 234.845C1177.07 234.955 1177.25 234.894 1177.19 234.722C1177.31 234.489 1177.25 234.318 1177.01 234.207C1176.01 234.171 1174.96 233.963 1173.9 233.755Z" fill="#040404"/>
<path d="M1182.59 257.986C1181.89 258.807 1180.9 259.347 1180.43 260.278C1180.43 260.278 1180.49 260.45 1180.55 260.621C1180.55 260.621 1180.79 260.731 1180.73 260.56C1181.43 259.738 1182.36 259.027 1182.59 257.986Z" fill="#040404"/>
<path d="M1186.83 263.491C1187.59 262.84 1187.88 261.969 1188.4 261.208C1188.4 261.208 1188.52 260.975 1188.28 260.865C1188.04 260.755 1188.1 260.926 1187.93 260.988C1187.47 261.92 1187.12 262.62 1186.83 263.491Z" fill="#040404"/>
<path d="M1180.13 263.308C1180.43 263.589 1180.6 263.528 1180.72 263.295C1180.95 262.83 1181.24 262.535 1181.53 262.241C1181.71 262.18 1181.65 262.008 1181.59 261.837C1181.35 261.727 1181.41 261.898 1181.24 261.96C1180.95 262.254 1180.71 262.719 1180.42 263.014C1180.25 263.075 1180.31 263.246 1180.13 263.308Z" fill="#040404"/>
<path d="M1174.19 259.153C1174.25 259.324 1174.48 259.434 1174.6 259.201C1175.24 258.785 1175.71 258.43 1176.05 257.733C1175.41 258.149 1174.77 258.565 1174.19 259.153Z" fill="#040404"/>
<path d="M1158.3 256.137C1159.69 255.65 1160.91 255.224 1162.13 254.797C1163.29 254.201 1164.8 254.054 1165.96 253.458C1166.14 253.397 1166.48 253.275 1166.42 253.105C1166.37 252.934 1166.02 253.056 1165.84 253.117C1163.34 253.799 1160.97 254.822 1158.35 255.736C1158.35 255.736 1158.18 255.797 1158.3 256.137Z" fill="#040404"/>
<path d="M1155.32 255.431C1153.93 255.918 1152.25 256.698 1150.68 257.246C1150.5 257.307 1150.15 257.429 1150.21 257.6C1150.33 257.94 1150.45 257.709 1150.8 257.587C1152.83 256.685 1154.92 255.954 1157.01 255.223C1157.19 255.162 1157.36 255.101 1157.53 255.04C1157.71 254.979 1158.06 254.857 1158 254.687C1157.88 254.346 1157.59 254.638 1157.36 254.529C1156.72 254.943 1156.2 255.126 1155.32 255.431Z" fill="#040404"/>
<path d="M1154.18 257.191C1152.38 257.63 1150.87 258.349 1149.13 258.958C1148.96 259.019 1148.78 259.08 1149.01 259.189C1149.07 259.36 1149.25 259.299 1149.42 259.238C1150.64 258.811 1151.86 258.385 1153.08 257.958C1153.61 257.776 1153.95 257.654 1154.18 257.191Z" fill="#040404"/>
<path d="M1140.25 262.059C1141.07 262.156 1141.94 261.852 1142.64 261.608C1143.86 261.182 1145.08 260.755 1146.3 260.329C1146.47 260.268 1146.65 260.207 1146.82 260.146C1146.99 260.085 1147.17 260.024 1147.11 259.854C1147.05 259.683 1146.88 259.744 1146.7 259.805C1145.48 260.232 1144.26 260.658 1143.1 261.255C1142.58 261.438 1141.88 261.681 1141.3 261.694C1140.89 261.645 1140.48 261.597 1140.25 262.059Z" fill="#040404"/>
<path d="M1147.09 258.697C1147.73 258.855 1148.37 258.44 1149.13 258.367C1149.3 258.306 1149.48 258.245 1149.42 258.074C1149.36 257.903 1149.18 257.964 1149.12 257.793C1148.36 257.867 1147.72 258.282 1147.09 258.697Z" fill="#040404"/>
<path d="M1187.83 251.264C1188.01 251.202 1188.42 251.251 1188.3 250.907C1188.12 250.391 1188.35 249.923 1188.35 249.345C1187.77 249.936 1187.65 250.169 1187.83 251.264Z" fill="#040404"/>
<path d="M1185.2 241.485C1185.03 241.547 1185.09 241.718 1185.09 241.718C1185.2 242.062 1185.44 242.173 1185.68 242.283C1185.91 242.393 1186.21 242.676 1186.44 242.209C1186.56 241.976 1186.14 241.927 1185.91 241.816C1185.67 241.706 1185.44 241.596 1185.38 241.424C1185.44 241.596 1185.38 241.424 1185.2 241.485Z" fill="#040404"/>
<path d="M1187.23 248.372C1186.76 248.729 1186.59 249.368 1186.77 249.885C1187.24 249.528 1187.23 248.95 1187.23 248.372Z" fill="#040404"/>
</g>
<g opacity="0.1">
<path d="M1.76122 269.358C-4.79089 270.113 -11.343 268.352 -18.1471 267.346C-20.1631 267.094 -21.6752 265.333 -23.4392 264.075C-26.7152 261.56 -26.7152 261.057 -24.1952 257.535C-22.6832 255.774 -21.9272 253.762 -20.9191 251.498C-20.1631 249.485 -18.6511 247.976 -17.3911 246.466C-15.6271 243.951 -14.115 241.435 -12.351 238.92C-9.07495 234.14 -5.7989 229.612 -2.77485 224.581C-1.01082 221.562 1.25721 218.543 4.02926 216.028C4.53326 215.525 5.03727 214.77 5.28928 214.267C6.29729 212.506 7.55731 210.745 9.06934 209.487C10.8334 207.978 11.5894 205.714 12.8494 203.953C16.1255 199.677 17.3855 194.394 20.1575 189.866C21.1655 188.356 21.9215 186.847 22.9296 185.086C23.6856 183.577 24.4416 182.319 24.1896 180.558C23.9376 179.552 25.1976 178.797 26.4576 179.049C27.7176 179.3 28.7257 180.307 29.7337 181.061C33.2617 183.325 37.0418 185.086 39.5618 188.608C41.8299 191.878 44.0979 195.148 46.3659 198.419C49.894 203.953 52.666 209.99 53.9261 216.783C55.4381 223.323 54.9341 230.115 53.4221 236.404C52.666 238.92 51.91 241.687 50.146 243.699C49.894 244.454 49.642 244.705 49.642 245.209C46.3659 252.252 41.0739 257.535 34.7738 262.063C28.7257 266.591 21.9215 268.352 14.6134 269.107C10.3294 269.358 6.29729 269.61 1.76122 269.358ZM34.0177 187.853C34.0177 188.105 34.2697 188.608 34.5217 188.356C35.0258 188.105 34.5217 187.853 34.0177 187.853C34.0177 187.35 33.7657 187.099 33.5137 187.35C33.7657 187.602 34.0177 187.853 34.0177 187.853ZM14.6134 207.726C17.3855 205.211 19.6535 202.444 20.9135 198.922C21.6695 196.909 23.1816 195.148 24.4416 193.388C24.9456 192.381 26.2056 191.878 27.2136 191.124C27.9696 190.62 28.4736 190.62 29.4817 191.124C32.0017 192.381 33.5137 194.645 34.0177 197.413C34.5217 200.431 35.5298 202.695 37.0418 205.211C38.0498 206.972 37.2938 208.733 36.2858 210.494C35.2778 211.751 34.0177 211.751 32.7577 211.248C29.7337 210.242 26.4576 210.997 23.4336 211.5C20.9135 212.003 18.6455 212.506 16.1255 212.254C14.6134 212.003 13.6054 211.751 13.6054 210.242C10.8334 212.506 8.56533 215.022 7.05331 218.04C7.05331 218.292 6.8013 218.292 6.5493 218.543C3.77725 220.807 1.76122 223.575 0.249195 226.593C-2.77485 231.876 -6.30291 236.404 -9.57896 241.435C-10.839 243.196 -11.595 245.209 -13.107 246.97C-16.1311 250.743 -18.6511 254.516 -20.4151 258.793C-14.367 261.057 -8.31894 260.805 -2.01884 261.057C1.00521 261.057 4.28126 261.057 7.30531 260.554C11.0854 260.051 14.6134 259.296 17.8895 257.787C22.9296 255.774 27.2136 253.007 31.2457 249.234C31.7497 248.73 32.0017 248.479 32.5057 247.976C35.0258 245.209 36.5378 241.687 38.8058 238.92C41.0739 236.153 41.8299 232.631 42.8379 229.36C43.8459 225.587 42.8379 221.562 42.8379 217.537C43.0899 214.267 42.0819 211.5 40.8218 208.481C39.5618 205.462 38.0498 202.192 37.0418 198.922C35.0258 193.388 31.7497 188.86 27.2136 184.583C25.7016 188.105 23.6856 190.872 22.1735 193.891C19.6535 198.419 17.6375 203.198 14.6134 207.726C14.6134 207.475 14.3614 207.726 14.6134 207.726C14.6134 207.978 14.6134 207.726 14.6134 207.726ZM-22.6832 260.554C-22.6832 261.308 -21.9272 261.56 -21.6752 261.811C-19.6591 263.824 -17.1391 264.579 -14.115 264.83C-9.83097 265.333 -5.7989 266.088 -1.51483 266.088C5.03727 266.34 11.8414 266.34 18.3935 265.082C23.4336 264.075 28.4736 262.566 32.7577 259.296C35.7818 257.032 38.3018 254.516 40.8218 252.001C44.6019 248.227 46.6179 243.699 49.138 239.171C50.902 236.152 50.902 232.379 51.658 229.109C52.162 226.845 52.414 224.329 51.91 222.065C51.658 220.807 51.406 219.298 51.154 217.789C50.902 214.77 49.894 212.003 48.886 209.236C47.122 205.211 44.8539 201.186 42.3339 197.413C40.5698 195.148 39.0578 192.633 37.5458 190.369C36.7898 189.363 36.0338 188.356 34.7738 187.853C34.7738 188.608 35.0258 188.86 35.2778 189.111C37.2938 192.381 39.3098 195.652 40.3178 199.425C40.8218 201.186 41.8299 202.947 42.5859 204.708C44.0979 208.23 45.8619 211.751 45.6099 215.525C45.6099 217.034 45.3579 218.543 45.6099 220.053C46.6179 225.084 45.3579 229.864 43.5939 234.643C42.5859 237.662 40.0658 239.674 38.8058 242.441C36.5378 246.97 33.0097 250.491 29.2297 253.51C25.7016 256.277 21.1655 258.541 16.8815 260.051C8.56533 262.818 -0.00280762 263.321 -8.82295 262.566C-13.611 263.069 -18.1471 262.566 -22.6832 260.554ZM18.1415 208.984C19.9055 208.984 21.6695 208.23 23.1816 207.978C26.2056 207.475 28.9777 207.223 32.0017 207.978C32.5057 208.23 33.5137 208.733 34.0177 207.726C34.7738 206.72 34.2697 206.217 33.7657 205.462C32.5057 203.45 31.2457 201.186 30.9937 198.67C30.9937 197.161 30.2377 195.903 29.4817 194.645C28.9777 193.891 28.2216 193.388 27.4656 194.394C25.9536 195.903 24.9456 197.664 23.9376 199.677C22.4255 202.695 21.1655 205.714 18.6455 207.978C18.1415 208.23 17.8895 208.481 18.1415 208.984Z" fill="#070707"/>
<path d="M34.0178 187.853C33.7658 187.602 33.7658 187.602 33.5138 187.35C34.0178 187.099 34.2698 187.35 34.0178 187.853C34.2698 187.853 34.2698 187.853 34.0178 187.853Z" fill="#FCFCFC"/>
<path d="M34.2697 187.602C34.5217 187.853 35.0257 187.853 34.5217 188.356C34.5217 188.608 34.2697 188.105 34.2697 187.602C34.2697 187.853 34.2697 187.853 34.2697 187.602Z" fill="#FCFCFC"/>
<path d="M14.6135 207.726C14.6135 207.726 14.6135 207.978 14.6135 207.726C14.3615 207.726 14.6135 207.475 14.6135 207.726C14.6135 207.475 14.6135 207.475 14.6135 207.726Z" fill="#FCFCFC"/>
<path d="M24.1896 214.015C26.2057 213.764 28.4737 214.267 30.7418 213.261C30.9938 213.009 31.4978 213.009 31.7498 213.261C34.0178 215.022 37.0419 215.273 38.3019 218.292C39.5619 220.807 40.0659 223.323 39.3099 226.342C38.8059 228.857 38.0499 231.121 36.0338 232.882C32.5058 235.901 30.2377 239.674 28.2217 243.699C27.2137 245.712 24.6937 246.215 22.6776 246.466C19.6536 246.718 17.3855 245.46 15.8735 242.693C14.8655 240.681 12.8495 239.423 10.8334 238.668C8.06139 237.41 5.79335 235.649 4.02932 233.134C3.52531 232.379 3.02131 231.624 1.76129 231.624C0.501266 231.624 0.249262 230.115 1.00527 229.36C2.01329 228.354 2.5173 227.096 3.77732 226.593C4.28133 226.342 4.53333 225.839 4.53333 225.335C5.03734 223.323 6.54937 221.814 7.05337 219.801C7.30538 219.298 7.55738 218.795 8.06139 218.543C9.82542 217.789 11.3374 216.279 13.3535 216.279C15.6215 216.279 17.3855 214.77 19.6536 214.518C21.1656 214.267 22.4256 214.015 24.1896 214.015ZM37.0419 223.575C36.7899 221.311 36.0338 219.047 33.5138 217.537C32.0018 216.783 30.4898 216.279 28.9777 216.783C27.9697 217.034 26.9617 216.783 25.9537 216.783C24.1897 216.783 22.6776 216.783 20.9136 217.034C18.6456 217.286 16.8815 218.795 14.6135 218.795C11.8415 218.795 9.82542 220.304 8.8174 223.071C8.31339 224.581 7.55738 226.342 6.80137 227.851C5.54135 230.115 5.54135 230.115 6.80137 232.128C7.80939 233.637 9.06941 234.895 10.8334 235.649C14.1095 237.159 17.1335 238.92 18.8976 242.441C19.6536 243.699 21.1656 243.951 22.4256 243.699C23.9376 243.448 25.4497 243.196 26.2057 241.687C27.7177 238.165 29.7337 234.643 32.7578 232.379C35.5298 229.864 36.2858 226.845 37.0419 223.575Z" fill="#070707"/>
<path d="M1.50914 256.529C1.00513 256.529 0.753125 256.529 0.249117 256.529C-1.76692 256.277 -3.78295 256.026 -5.54698 257.535C-6.30299 258.29 -7.56301 258.038 -8.57102 257.535C-10.083 256.78 -11.5951 256.78 -12.8551 255.522C-13.3591 255.019 -13.8631 254.516 -13.8631 254.013C-14.1151 250.743 -14.3671 247.473 -11.5951 244.957C-8.57103 242.441 -6.55499 239.171 -4.79097 235.649C-3.02694 232.631 -0.7589 233.134 1.50914 234.643C4.28118 236.656 7.30523 238.416 10.5813 239.926C13.8573 241.687 15.8734 245.963 14.8654 249.485C14.3614 251.246 12.3453 252.755 10.5813 252.755C9.06926 252.755 7.55724 252.755 6.80123 254.516C6.29722 255.271 5.5412 255.774 4.53319 255.774C3.77718 256.529 2.51715 256.529 1.50914 256.529ZM1.76114 253.761C2.51715 253.51 4.02918 254.516 4.78519 253.258C6.04521 250.994 8.06124 250.743 10.3293 250.743C11.5893 250.743 12.0933 249.988 12.3453 248.982C12.8493 246.215 11.3373 243.699 8.56525 242.441C7.30523 241.938 6.29722 241.435 5.0372 240.68C3.27317 239.423 1.50914 238.668 -0.254891 237.41C-1.0109 236.907 -1.51491 236.907 -2.27092 237.662C-3.02694 238.668 -3.27894 239.926 -4.03495 240.932C-5.54698 243.699 -8.06702 245.46 -9.83105 247.976C-10.5871 248.982 -11.3431 250.24 -11.8471 251.497C-12.0991 252.504 -12.0991 253.761 -10.8391 254.013C-9.07503 254.516 -7.56301 256.277 -5.79898 254.516C-4.79096 253.51 -3.78295 253.007 -2.52293 253.51C-1.0109 253.761 0.249118 253.761 1.76114 253.761Z" fill="#070707"/>
</g>
</svg>
