<svg width="1386" height="653" viewBox="0 0 1386 653" fill="none" xmlns="http://www.w3.org/2000/svg">
<g opacity="0.1">
<path d="M116.772 569.886C111.939 565.02 109.604 558.734 108.419 552.165C106.957 544.454 106.262 536.555 108.817 528.665C113.635 513.36 128.914 504.364 144.08 508.308C150.567 509.944 156.592 509.676 163 509.314C178.975 508.217 191.061 514.532 197.711 530.25C199.861 535.775 199.052 540.815 199.577 546.335C200.379 552.998 200.706 559.374 201.891 565.942C202.813 569.751 202.111 573.555 200.457 576.785C197.534 583.152 195.177 590.186 189.876 595.118C182.552 601.758 175.136 608.017 164.342 607.034C158.132 606.541 153.087 604.148 149.496 599.38C146.785 603.273 143.414 606.118 139 608.009C135.352 609.711 131.612 611.032 127.702 609.975C124.65 609.11 121.889 607.77 120.676 604.436C120.491 603.674 119.923 603.007 118.972 602.433C107.192 594.026 109.803 579.667 115.807 570.93C116.574 570.742 116.865 570.267 116.772 569.886ZM157.295 571.239C157.295 571.239 157.203 570.858 156.819 570.952C156.912 571.333 156.912 571.333 157.295 571.239C156.912 571.333 157.295 571.239 157.295 571.239C159.09 573.622 163.568 575.348 167.493 574.788C170.942 573.942 174.774 573.001 178.223 572.155C180.523 571.59 181.963 570.833 181.992 567.598C180.735 569.117 179.891 567.307 178.45 568.064C174.803 569.766 171.261 570.232 167.337 570.792C163.888 571.638 160.453 570.867 157.295 571.239ZM156.003 587.696C155.223 589.501 154.35 590.926 153.094 592.445C151.838 593.963 151.823 595.581 153.051 597.297C156.734 602.446 162.27 603.508 168.203 602.859C177.003 602.313 182.886 596.431 188.769 590.548C192.431 587.228 193.623 582.094 195.859 577.914C198.094 573.734 198.52 568.787 197.796 564.123C196.81 556.698 195.639 548.512 195.709 540.425C195.752 535.573 194.354 531.477 192.097 527.189C186.171 516.135 176.647 512.017 164.214 512.647C157.422 513.104 150.631 513.56 143.761 512.018C129.837 508.173 116.183 517.173 112.528 530.578C108.98 542.747 111.655 553.792 116.815 565.034C117.383 565.701 117.844 567.606 119.192 566.468C120.541 565.33 122.655 564.004 121.811 562.194C119.739 558.667 119.107 554.384 118.568 550.481C117.503 541.059 118.631 532.308 125.863 525.288C127.502 523.675 128.943 522.918 131.242 522.354C134.784 521.888 138.708 521.328 142.249 520.863C149.424 520.312 156.784 520.523 163.639 523.683C167.258 525.216 170.204 527.317 173.823 528.85C178.776 530.862 182.566 534.774 182.907 539.532C182.971 543.148 184.092 546.101 185.306 549.434C187.271 554.197 187.612 558.956 185.561 563.898C184.49 566.178 183.986 569.126 184.632 571.792C185.093 573.697 184.986 574.933 184.021 575.977C181.417 578.634 179.856 582.245 177.727 585.188C175.597 588.132 173.376 590.695 169.636 592.016C164.271 593.333 160.283 590.277 156.003 587.696ZM151.546 572.649C150.993 570.364 150.148 568.554 149.595 566.269C148.658 564.078 148.197 562.174 147.26 559.983C145.294 555.22 142.15 553.974 137.445 556.339C133.123 558.61 128.418 560.976 125.324 564.963C122.904 568.381 120.392 571.419 117.972 574.837C113.224 582.055 114.104 590.716 118.54 597.294C119.86 599.391 122.436 599.969 123.756 602.066C125.828 605.592 128.589 606.932 132.804 605.898C141.235 603.829 146.352 598.134 150.333 591.105C153.825 585.406 152.732 579.218 151.546 572.649ZM150.248 557.232C154.016 552.675 158.26 548.406 161.645 543.944C164.448 540.431 168.202 537.492 170.53 533.693C171.204 533.124 172.169 532.08 171.602 531.413C169.515 529.504 166.662 527.783 164.178 527.585C162.078 527.294 161.773 529.386 161.283 530.717C157.869 538.414 153.597 545.919 149.708 553.329C148.928 555.135 148.821 556.371 150.248 557.232ZM145.904 551.035C148.984 548.665 149.779 545.242 149.24 541.339C148.516 536.675 146.933 531.818 146.593 527.06C146.529 523.444 144.52 523.533 142.129 523.717C141.745 523.811 140.979 523.999 140.596 524.093C138.587 524.182 138.389 525.038 138.85 526.942C139.68 530.37 140.511 533.798 140.958 537.319C141.391 542.459 141.348 547.311 145.904 551.035ZM157.437 555.064C165.392 552.708 171.46 547.587 178.28 543.896C178.954 543.327 179.628 542.758 179.06 542.09C178.124 539.899 177.279 538.089 175.959 535.992C175.299 534.944 174.348 534.37 173.475 535.795C172.02 538.169 169.998 539.876 168.16 542.345C164.682 546.426 160.346 550.315 157.437 555.064ZM180.906 549.707C180.643 546.947 179.493 547.23 178.528 548.273C172.567 552.157 166.897 555.567 160.368 558.783C158.927 559.54 157.579 560.678 156.23 561.816C155.556 562.385 154.499 563.048 155.159 564.096C155.819 565.145 156.968 564.863 157.643 564.294C165.122 561.651 172.035 558.341 178.379 554.362C180.494 553.036 181.275 551.231 180.906 549.707ZM124.167 533.371C122.606 536.982 122.286 540.692 121.967 544.401C121.86 545.638 122.045 546.4 123.564 547.641C125.558 549.169 128.134 549.747 129.454 551.844C131.725 554.515 133.641 554.045 136.43 552.15C132.47 545.859 128.51 539.568 124.167 533.371ZM138.006 546.921C138.261 539.595 137.168 533.408 135.309 527.408C135.124 526.646 134.847 525.504 133.698 525.786C131.782 526.256 129.866 526.726 128.702 528.626C127.538 530.526 127.616 532.524 128.844 534.24C131.775 537.959 134.798 542.059 138.006 546.921ZM179.976 557.602C173.539 561.199 166.627 564.51 160.006 567.345C165.832 567.933 170.999 567.472 176.563 565.299C180.686 563.884 181.268 562.934 179.976 557.602ZM149.964 524.215C150.013 529.448 152.362 534.117 152.888 539.637C155.414 534.982 157.082 530.134 159.409 526.335C156.556 524.614 153.398 524.986 149.964 524.215ZM178.379 576.151C170.807 578.413 163.235 580.675 155.443 575.325C156.379 577.516 155.691 579.702 158.175 579.9C161.134 580.384 163.803 581.343 166.762 581.827C173.738 582.132 176.712 580.999 178.379 576.151ZM157.856 583.609C159.452 586.849 162.504 587.714 165.172 588.673C168.224 589.538 170.537 587.356 172.376 584.888C167.578 586.872 163.207 583.91 157.856 583.609ZM122.478 551.539C122.939 553.443 123.308 554.967 123.677 556.49C124.6 560.299 124.508 559.918 127.68 557.929C129.412 556.697 129.702 556.222 127.708 554.694C126.19 553.453 124.763 552.592 122.478 551.539Z" fill="#0A0A0A"/>
</g>
<g opacity="0.1">
<path d="M1349.81 26.5187C1347.31 25.0917 1345.61 23.5031 1344.06 22.0203C1342.68 20.6433 1341.77 18.8932 1341.29 17.195C1340.48 14.5949 1341.7 12.4141 1343.71 10.7622C1344.88 9.69678 1346.36 8.84295 1348.12 8.62568C1349.44 8.35648 1350.56 7.71611 1351.67 7.07574C1355.06 5.42001 1358.52 5.4105 1361.71 7.52607C1365.06 9.74741 1368.04 12.1822 1370.28 15.7343C1373.11 20.1346 1373.81 24.9656 1373.72 29.958C1373.67 32.4543 1373.79 35.0563 1373.05 37.5545C1372.05 40.7969 1371.48 44.0912 1368.77 46.4354C1367.93 47.022 1368.03 48.2432 1367.67 49.147C1366.19 53.4529 1363.06 55.7452 1359.14 57.5086C1358.5 57.7759 1358.29 58.0952 1358.4 58.6259C1358.56 59.4221 1358.4 60.0068 1357.82 60.5395C1353.95 63.9491 1349.71 66.8818 1344.35 67.6932C1343.29 67.9085 1342.33 67.9643 1341.32 67.7546C1339.89 67.493 1339.2 68.1853 1338.24 68.9315C1335.97 71.3276 1333.42 73.0872 1330.56 74.6353C1329.82 75.0622 1329.02 75.2237 1328.28 74.9602C1325.51 74.2774 1324.01 69.608 1325.76 67.3195C1326.29 66.5214 1326.5 66.2022 1325.54 65.5675C1324.9 65.1444 1324.32 64.2962 1323.89 63.5539C1322.4 60.9557 1322.6 58.5652 1324.56 56.6479C1326.79 54.6767 1330.08 54.5614 1332.26 56.4674C1333.75 57.6848 1335.35 58.7425 1336.79 59.6945C1337.74 60.3292 1338.43 60.3273 1339.17 59.21C1341.18 56.1772 1343.03 53.0387 1345.26 50.3772C1346.16 49.3656 1346.79 48.4079 1348.06 47.8733C1349.71 47.1252 1350.56 45.8483 1351.35 44.306C1352.4 42.0194 1352.98 39.4154 1354.78 37.3923C1355.1 36.9135 1354.51 35.375 1354.19 34.473C1353.6 32.9345 1352.38 31.6632 1352.05 30.0708C1351.94 28.1592 1351.03 27.0995 1349.81 26.5187ZM1371.9 26.4579C1371.31 22.8481 1370.77 19.5037 1368.8 16.5882C1367.25 14.415 1365.28 12.8802 1363.42 11.1859C1359.9 7.47793 1356.02 6.74509 1351.57 9.30659C1350.3 9.84118 1349.02 10.3758 1347.7 10.645C1345.84 11.0219 1344.3 12.3007 1343.3 14.1623C1342.03 16.7681 1343.52 18.6759 1345.02 20.5837C1346.51 22.4915 1348.58 23.8667 1350.66 25.2418C1351.46 25.7707 1351.83 25.5572 1352.36 24.7591C1353.09 22.9514 1354.53 21.8321 1356.38 21.4553C1359.67 20.6496 1362.65 21.7035 1365.68 22.3325C1368.23 22.6441 1370.09 24.3385 1371.9 26.4579ZM1367.39 24.6115C1364.73 23.0787 1361.22 22.8228 1357.77 22.8323C1355.86 22.9438 1354.27 23.9572 1353.58 26.0303C1353.21 27.6246 1353.48 28.9516 1354.18 30.3305C1355.24 32.1864 1356.42 33.8827 1356.32 36.1135C1356.32 36.8039 1356.58 36.7501 1357.17 36.9078C1361.9 37.0541 1364.77 40.3389 1367.39 43.6776C1368.13 44.6315 1368.34 44.3123 1368.77 43.6738C1369.08 43.1949 1369.4 42.7161 1369.56 42.1314C1370.61 39.8449 1371.09 37.4006 1371.56 34.9562C1372.13 30.9715 1371.43 27.5213 1367.39 24.6115ZM1351.2 47.6522C1353.54 50.3543 1356.36 52.6834 1358.07 55.6527C1360.03 54.4258 1362.53 53.7817 1364.17 51.6528C1366.23 48.8854 1368.13 45.3219 1364.62 42.3044C1362.81 40.8754 1361.48 39.0734 1359.03 38.6021C1357.44 38.2348 1356.06 38.929 1355.48 40.1521C1354.63 42.1194 1353.63 43.981 1352.79 45.9484C1352.1 46.6407 1351.83 47.3849 1351.2 47.6522ZM1341.32 65.6834C1342.54 65.5738 1343.49 65.518 1344.45 65.4623C1348.32 64.8143 1351.51 62.7874 1354.63 60.4951C1357.07 58.8951 1357.28 57.1951 1355.41 54.8103C1354.13 53.2737 1352.86 51.7371 1351.31 50.2543C1350.09 48.983 1348.97 48.933 1347.59 50.3176C1344.89 53.3523 1342.94 56.6504 1340.88 60.1081C1340.56 60.587 1339.45 61.9178 1341.31 62.2313C1342.32 62.441 1342.48 63.2372 1342.11 64.141C1342.11 64.8314 1341.74 65.0449 1341.32 65.6834ZM1332.25 71.391C1331.03 70.1198 1331.03 70.1197 1333.78 67.3505C1333.09 67.3524 1332.29 67.5139 1331.6 67.5158C1330.91 67.5177 1330.33 67.36 1330.22 66.8292C1330.11 66.2984 1330.59 65.9253 1331.07 65.5523C1332.18 64.9119 1333.03 64.3254 1334.25 63.5254C1333.02 62.9445 1331.91 62.2041 1330.84 61.729C1330.36 61.4117 1329.89 61.0944 1330.31 60.4559C1330.57 59.7117 1331.16 59.8694 1331.9 60.1329C1332.49 60.2906 1333.02 60.8733 1333.6 61.031C1334.83 61.6119 1335.89 62.0869 1337.75 61.71C1334.88 60.4964 1333.01 58.8021 1330.94 57.427C1329.02 56.1576 1326.42 56.9614 1325.42 58.823C1324.52 60.525 1325.27 62.8597 1327.66 64.4464C1329.26 65.5041 1329.37 66.0349 1328.15 67.5253C1326.72 69.335 1326.67 70.4504 1328.27 72.1986C1328.96 72.8871 1329.65 73.5756 1330.71 72.6698C1330.87 72.0852 1331.51 71.8179 1332.25 71.391Z" fill="#0A0A0A"/>
</g>
<g opacity="0.1">
<path d="M1365.34 552.726C1368.43 555.667 1369.92 559.581 1370.46 563.591C1370.85 565.325 1370.29 567.154 1369.23 568.369C1365.77 572.928 1361.81 576.872 1356.18 578.768C1353.26 579.8 1351.17 581.856 1348.89 584.081C1343.7 589.035 1338.72 593.821 1333.19 598.366C1325.25 604.557 1317.15 610.544 1309.25 616.362C1305.19 619.355 1301.85 622.794 1297.79 625.787C1293.94 628.612 1289.76 631.027 1285.24 633.033C1282.69 634.101 1280.44 635.953 1278.4 637.636C1276.19 639.114 1274.31 641.002 1272.43 642.89C1268.88 646.498 1265.07 645.182 1262.26 641.326C1259.78 637.88 1259.24 633.87 1261.01 629.333C1265.12 620.128 1269.39 611.127 1273.34 601.717C1275.03 597.927 1276.89 594.341 1278.21 590.514C1279.36 586.482 1281.96 582.97 1283.65 579.179C1285.34 575.389 1287.58 571.84 1287.85 567.157C1287.98 563.967 1288.45 561.186 1286.89 558.018C1286.09 556.621 1286.64 554.791 1287.16 553.335C1288.89 549.171 1292 546.274 1295.98 544.027C1300.57 541.275 1305.55 540.257 1310.44 538.288C1312.01 537.688 1313.7 537.666 1315.19 537.812C1317.42 538.031 1319.69 537.877 1321.95 537.724C1329.5 537.335 1336.96 535.995 1344.31 539.543C1348.25 541.437 1352.68 542.249 1356.17 544.854C1359.67 547.458 1363.24 549.316 1365.34 552.726ZM1301.15 575.058C1301.19 574.685 1301.23 574.311 1300.85 574.275C1300.48 574.238 1300.82 574.648 1300.78 575.021C1299.51 576.404 1299.14 576.368 1298.55 574.802C1297.91 573.609 1297.65 572.453 1299.09 571.275C1298.31 571.575 1296.93 570.309 1297.12 572.212C1297.21 573.163 1297.97 574.934 1297.19 575.234C1295.26 575.797 1296.84 576.895 1296.39 577.605C1295.74 578.483 1294.96 578.783 1293.88 578.3C1293.34 578.059 1293.04 577.276 1292.5 577.034C1291.59 580.525 1293.04 581.044 1298.7 580.846C1298.36 580.436 1298.19 580.231 1297.86 579.822C1297.53 579.412 1297.39 578.834 1297.8 578.497C1298.21 578.161 1298.59 578.197 1299.12 578.438C1301.21 580.15 1300.82 578.416 1300.93 577.297C1301 576.55 1301.45 575.841 1301.15 575.058ZM1356.38 574.831C1354.73 574.48 1353.8 572.505 1351.9 572.695C1351.32 572.827 1351.23 571.876 1351.27 571.503C1351.49 569.264 1352.46 567.098 1354.46 565.788C1355.69 564.778 1356.92 563.768 1357.98 562.553C1360.95 559.077 1363.26 558.55 1366.33 559.794C1366.03 559.011 1365.73 558.228 1365.43 557.445C1365.27 557.24 1365.1 557.035 1364.93 556.83C1360.08 550.89 1354.33 546.368 1347.08 543.772C1345.26 543.216 1343.27 542.455 1341.65 541.731C1338.78 540.319 1335.64 539.822 1332.8 540.108C1328.63 540.452 1324.54 540.05 1320.5 540.972C1318.98 541.2 1317.29 541.222 1315.63 540.871C1314.72 540.593 1313.57 540.856 1312.58 541.325C1307.73 542.92 1302.71 544.311 1298.12 547.063C1295.12 548.841 1292.84 551.066 1291.39 554.315C1290.7 555.566 1290.75 556.891 1291.35 558.457C1292.41 561.01 1292.89 563.695 1292.06 566.439C1291.74 567.727 1291.63 568.847 1291.68 570.171C1292.63 570.076 1293.41 569.776 1293.86 569.066C1294.51 568.188 1294.96 567.478 1296.11 567.214C1298.66 566.146 1301.04 564.872 1303.72 564.382C1306.77 563.928 1310.22 563.137 1313.29 564.381C1315.11 564.937 1317.07 566.07 1319.06 566.831C1324.08 569.209 1326.18 572.618 1325.16 577.228C1324.73 579.635 1323.43 581.392 1321.92 583.316C1319.77 586.119 1317.31 588.139 1314.65 590.327C1309.95 594.198 1304.89 595.962 1298.85 594.426C1293.71 593.168 1290.63 590.227 1289.86 584.688C1289.68 582.786 1289.08 581.22 1288.56 578.908C1284.68 585.874 1281.91 592.95 1278.6 599.785C1279.38 599.485 1279.58 599.316 1279.82 598.775C1280.88 597.56 1281.78 596.141 1282.84 594.926C1283.49 594.048 1284.71 593.038 1285.76 593.894C1286.96 594.955 1288.12 594.691 1289.48 594.259C1290.63 593.996 1292.12 594.142 1293.6 594.288C1296 594.712 1298.09 596.424 1297.86 598.663C1297.7 602.226 1296.28 605.102 1293.59 607.663C1291.5 609.72 1288.62 610.379 1285.61 610.46C1284.87 610.386 1284.08 610.687 1283.3 610.987C1281.74 611.587 1280.66 611.104 1279.66 609.875C1278.15 608.031 1277.43 605.887 1277.48 603.443C1277.69 603.275 1277.72 602.902 1277.35 602.865C1276.98 602.829 1276.94 603.202 1276.91 603.575C1275.53 606.078 1274.53 608.617 1273.15 611.12C1271.33 614.332 1270.75 618.232 1268.73 621.613C1268.04 622.864 1266.57 624.416 1266.79 625.945C1266.98 627.847 1265.96 628.689 1265.27 629.94C1264.75 631.396 1264.06 632.648 1264.62 634.586C1265.05 635.947 1264.53 637.404 1265.33 638.801C1266.59 641.186 1268.04 641.706 1270.05 640.396C1270.66 639.891 1271.28 639.386 1271.89 638.881C1273.73 637.366 1275.44 635.273 1277.41 634.336C1282.13 632.162 1285.56 627.977 1289.44 624.779C1290.87 623.6 1291.97 622.012 1293.44 620.461C1291.41 620.073 1290.28 618.266 1288.21 618.252C1287.47 618.179 1286.97 617.564 1286.87 616.613C1286.74 616.035 1287.19 615.325 1287.77 615.193C1289.46 615.171 1290.15 613.92 1291.34 613.283C1293.14 612.142 1294.8 612.493 1296.14 614.131C1296.97 615.156 1297.03 616.48 1297.08 617.804C1300.39 614.738 1304.5 613.069 1307.81 610.003C1307.14 609.184 1306.4 609.111 1305.54 610.157C1304.69 611.204 1303.74 611.299 1303.93 609.433C1303.96 609.06 1303.8 608.855 1303.83 608.482C1302.14 604.736 1304 601.15 1308 600.601C1309.52 600.374 1310.68 600.11 1312.2 599.883C1313.35 599.62 1314.3 599.524 1315.38 600.007C1316.63 600.695 1316.51 601.814 1316.57 603.139C1319.27 600.577 1322.13 598.221 1324.83 595.66C1323.34 595.514 1322.43 595.236 1321.39 594.38C1319.97 593.487 1320.21 592.946 1321.11 591.526C1323.91 587.845 1328.15 586.754 1332.06 585.254C1332.63 585.122 1333.38 585.195 1333.51 585.773C1333.97 586.761 1334.38 586.424 1335 585.919C1335.81 585.246 1336.5 583.995 1337.49 583.526C1340.48 581.748 1342.64 578.945 1345.09 576.926C1346.73 575.579 1346.54 573.677 1344.79 572.374C1344.26 572.133 1343.55 571.687 1343.62 570.94C1343.57 569.616 1342.32 568.928 1341.24 568.446C1334.77 565.549 1327.82 563.735 1320.62 562.463C1312.88 560.949 1305 560.928 1297.13 562.605C1296.35 562.905 1295.53 563.578 1294.9 562.385C1294.44 561.398 1295.59 561.134 1296.2 560.629C1296.61 560.292 1297.19 560.161 1297.6 559.824C1300.11 559.129 1302.79 558.638 1305.26 558.316C1310.74 557.913 1315.95 558.424 1321.49 559.346C1328.32 560.581 1334.73 562.154 1341.04 564.846C1344.65 566.33 1347.84 568.152 1349.33 572.066C1349.8 573.054 1350.97 574.488 1349.74 575.498C1346.67 578.023 1344.44 581.572 1341.21 583.892C1336.71 587.595 1332.38 591.503 1328.01 595.784C1322.82 600.738 1317.84 605.524 1312.15 609.864C1310.51 611.21 1308.67 612.725 1307.03 614.072C1311.05 611.452 1314.9 608.627 1318.54 605.97C1324.19 602.004 1329.14 597.591 1334.63 593.419C1339.13 589.716 1343.12 585.399 1347.66 581.323C1350.02 578.352 1353.01 576.573 1356.38 574.831C1356.71 575.241 1356.92 575.073 1357.12 574.905C1356.75 574.868 1356.38 574.831 1356.38 574.831ZM1315.75 584.971C1318.58 582.987 1320.32 580.521 1321.53 577.814C1322.7 575.479 1322.26 572.421 1320.51 571.119C1316.14 567.863 1311.12 565.486 1305.43 566.057C1301.63 566.438 1295.96 568.707 1294.21 571.173C1295.68 569.622 1297.58 569.431 1299.48 569.241C1300.8 569.182 1301.34 569.424 1301.8 570.411C1303.83 574.567 1303.05 578.636 1301.15 582.594C1301.69 582.836 1302.43 582.909 1302.97 583.15C1303.89 583.428 1304.56 584.248 1304.28 585.162C1303.59 586.414 1304.22 587.606 1304.31 588.557C1304.57 589.713 1304.67 590.665 1303.81 591.711C1306.4 590.269 1309.61 590.02 1311.94 587.422C1309.59 588.323 1307.53 588.308 1306.23 586.296C1304.59 583.874 1306.84 582.023 1308.01 579.689C1307.03 580.157 1305.82 579.096 1305.13 580.347C1304.89 580.889 1304.98 581.84 1304.07 581.562C1303.16 581.284 1303.23 580.538 1303.31 579.792C1303.4 576.975 1303.66 574.362 1304.13 571.582C1304.63 568.428 1306.97 567.528 1309.67 568.735C1310.75 569.218 1311.45 569.664 1312.53 570.147C1316.51 571.668 1316.86 573.775 1313.89 577.251C1313.44 577.961 1311.92 578.188 1312.22 578.971C1312.85 580.164 1313.91 578.949 1314.65 579.022C1315.6 578.927 1316.14 579.168 1316.64 579.783C1317.14 580.397 1317.07 581.144 1316.62 581.853C1316.88 583.009 1316.44 583.719 1315.75 584.971ZM1283.56 597.07C1282.2 597.501 1282.39 599.404 1281.37 600.245C1280.14 601.255 1279.83 602.543 1279.51 603.831C1279.16 605.492 1279.92 607.263 1280.92 608.492C1281.76 609.516 1282.99 608.506 1283.94 608.411C1285.26 608.352 1286.24 607.884 1287.56 607.825C1288.51 607.73 1289.29 607.43 1290.07 607.13C1292.66 605.688 1293.66 603.149 1294.83 600.815C1295.8 598.649 1295 597.251 1292.6 596.827C1290.94 596.476 1289.42 596.703 1288.06 597.135C1287.11 597.23 1286.17 597.325 1285.29 596.674C1284.62 595.855 1284.05 595.987 1283.56 597.07ZM1358.11 570.668C1359.28 568.334 1362.37 567.506 1363.58 564.799C1363.85 563.884 1364.3 563.174 1363.8 562.56C1363.3 561.945 1362.65 562.823 1361.86 563.124C1359.65 564.602 1357.94 566.695 1356.4 568.992C1355.75 569.871 1355.71 570.244 1356.21 570.858C1356.88 571.678 1357.33 570.968 1358.11 570.668ZM1304.24 604.377C1305.32 604.86 1306.4 605.342 1307.27 605.994C1307.98 606.44 1308.35 606.476 1308.97 605.971C1310.4 604.793 1311.66 603.41 1312.59 601.617C1309.88 602.481 1306.44 601.201 1304.24 604.377ZM1295.54 589.956C1293.77 586.956 1293.81 586.583 1297.56 582.807C1295.13 582.756 1292.82 583.283 1291.15 581.235C1291.72 584.871 1291.76 588.266 1295.54 589.956ZM1292.38 625.444C1296.94 623.065 1300.28 619.626 1304 616.223C1299.48 618.229 1295.93 621.836 1292.38 625.444ZM1307.03 572.62C1306.82 572.789 1306.82 572.789 1306.62 572.957C1306.34 573.872 1305.99 575.533 1306.36 575.569C1307.44 576.052 1308.51 576.535 1309.39 577.186C1310.26 577.837 1311.49 576.827 1312.35 575.781C1309.87 576.103 1307.68 575.511 1307.03 572.62ZM1311.73 572.517C1307.79 570.623 1307.79 570.623 1306.93 571.669C1309.03 571.31 1309.57 571.552 1309.69 574.201C1309.96 573.286 1310.58 572.781 1311.73 572.517ZM1297.32 587.117C1298.44 587.226 1298.87 588.587 1299.93 587.372C1300.37 586.663 1300.07 585.88 1299.91 585.675C1298.62 585.36 1298.14 586.443 1297.32 587.117ZM1364.49 568.845C1362.27 570.323 1361.14 572.285 1359.5 573.631C1361.48 572.694 1363.32 571.179 1364.49 568.845ZM1322.97 591.709C1324.49 591.482 1324.49 591.482 1326 589.557C1324.47 589.784 1323.99 590.867 1322.97 591.709ZM1290.59 616.978C1291.88 617.293 1292.38 617.908 1293.03 617.029C1293.44 616.693 1293.31 616.115 1292.77 615.873C1292.06 615.427 1291.78 616.342 1290.59 616.978ZM1312.24 584.437C1310.91 584.496 1310.62 583.713 1310.08 583.471C1309.67 583.808 1309.22 584.518 1309.56 584.927C1310.26 585.374 1310.88 584.869 1312.24 584.437Z" fill="#060606"/>
<path d="M1300.73 575.037C1300.94 574.869 1300.44 574.255 1300.81 574.292C1301.18 574.328 1301.14 574.701 1301.11 575.073C1300.9 575.241 1300.73 575.037 1300.73 575.037Z" fill="#FBFBFB"/>
<path d="M1276.42 603.768C1276.46 603.395 1276.49 603.022 1276.87 603.058C1277.24 603.095 1277.2 603.468 1277 603.636C1276.79 603.804 1276.79 603.804 1276.42 603.768Z" fill="#FBFBFB"/>
<path d="M1356.41 574.626C1356.79 574.663 1356.79 574.663 1357.16 574.7C1356.95 574.868 1356.75 575.036 1356.41 574.626C1356.21 574.794 1356.41 574.626 1356.41 574.626Z" fill="#FBFBFB"/>
<path d="M1330.31 570.461C1332.64 567.865 1336.03 567.821 1339.71 568.559C1341 568.873 1341.91 569.151 1342.13 570.679C1342.56 572.039 1341.91 572.917 1340.88 573.758C1338.84 575.44 1336.49 576.339 1333.76 575.506C1332.68 575.024 1331.6 574.541 1330.41 575.178C1328.84 575.777 1328.41 574.417 1327.91 573.803C1327.24 572.984 1328.23 572.516 1328.84 572.012C1328.92 571.266 1329.49 571.134 1330.31 570.461ZM1332.43 571.799C1334.63 572.391 1337.12 573.765 1339.08 571.133C1336.51 570.504 1334.28 570.285 1332.43 571.799Z" fill="#060606"/>
<path d="M1276.78 618.269C1277.19 617.933 1277.64 617.224 1278.35 617.669C1279.26 617.947 1278.98 618.861 1278.94 619.234C1278.96 620.93 1279.35 622.663 1279.37 624.359C1279.28 627.174 1277.23 628.856 1274.62 628.6C1272.76 628.418 1271.76 627.19 1272.11 625.53C1272.95 622.788 1274.74 619.951 1276.78 618.269ZM1276.75 622.407C1276.95 622.239 1276.78 622.035 1276.78 622.035C1276.78 622.035 1276.58 622.203 1276.37 622.371C1275.69 623.621 1275.2 624.703 1274.89 625.99C1276.99 625.632 1277.23 625.091 1276.75 622.407Z" fill="#060606"/>
<path d="M1276.37 622.371C1276.57 622.203 1276.77 622.035 1276.77 622.035C1277.15 622.071 1276.94 622.24 1276.74 622.408C1276.57 622.203 1276.37 622.371 1276.37 622.371Z" fill="#FBFBFB"/>
</g>
<g opacity="0.1">
<path d="M69.0588 130.313C68.6908 128.072 68.5091 126.017 67.9531 124.335C67.398 122.28 68.5229 120.416 68.7146 118.362L69.089 117.99C69.4624 117.991 69.8349 118.365 69.834 118.739C70.3909 120.047 70.7607 121.542 71.3176 122.85C72.4306 125.84 73.9161 129.205 72.6004 132.749C76.9017 129.959 82.1298 129.972 86.6137 128.862C87.1743 128.677 87.5468 129.051 87.3596 129.238C86.7963 130.543 87.7285 131.106 87.9129 132.04C88.4662 134.842 87.5303 135.773 84.731 135.206C82.305 134.64 79.502 135.567 76.8853 136.681L77.0715 136.868C83.6061 137.071 87.7047 140.815 91.9886 145.12C97.0176 150.174 98.3095 156.338 99.0408 162.689C99.4042 166.797 97.9013 170.528 95.8388 174.07C92.6495 180.224 87.783 185.067 81.9852 188.974C80.1153 190.089 78.4308 191.766 76.5609 192.882C72.4476 195.112 68.3362 196.596 63.8532 197.332C59.5574 197.881 55.6387 196.938 51.9098 194.688C49.4857 193.375 46.8735 192.622 45.011 190.75C42.775 188.878 41.2876 186.26 39.6131 183.829C38.3102 182.145 37.3808 180.462 36.6394 178.22C36.2687 177.099 35.71 176.537 34.2171 176.16C31.0453 175.219 28.2496 173.158 25.6401 171.284C25.0813 170.723 24.3354 170.348 23.7766 169.786C21.9122 168.661 20.6093 166.978 19.6808 164.921C17.8228 161.183 16.7116 157.445 17.2814 153.526C17.8493 150.353 17.2951 147.924 16.1821 144.934C14.6976 141.196 15.2682 136.903 16.2114 132.984C16.7775 130.558 18.6501 128.322 20.3356 126.273C25.9535 119.565 33.246 115.288 42.2111 114.19C47.8144 113.457 52.8525 114.776 57.7007 117.402C61.2432 119.464 64.2234 122.459 66.0814 126.198C67.1989 127.321 67.5687 128.816 69.0588 130.313ZM78.5286 151.809C78.5277 152.182 78.1534 152.555 78.5268 152.556C78.9003 152.556 79.2746 152.184 79.0893 151.623C81.5252 148.082 78.7405 141.54 74.4474 140.969C74.074 140.968 73.8878 140.781 73.5134 141.154C73.3253 141.713 73.6987 141.714 74.2584 141.902C76.3082 143.588 78.1708 145.459 78.3497 148.634C78.1607 149.567 78.158 150.687 78.5286 151.809ZM18.6071 145.874C21.2422 137.291 31.5331 128.541 35.2665 128.923C33.77 130.04 32.4607 130.97 31.3386 131.714C25.9133 135.996 22.1653 141.588 20.4679 148.492C19.9009 151.292 19.3348 153.718 19.7009 156.706C20.4286 164.55 25.6456 169.044 31.237 173.165C34.4052 175.6 38.3249 176.17 42.2473 175.62C43.741 175.623 45.4219 175.441 46.7285 175.631C47.1019 175.631 47.4753 175.632 47.4735 176.379C47.4726 176.753 47.2854 176.939 46.912 176.938C45.6036 177.495 44.4824 177.866 42.9896 177.489C41.683 177.299 40.1893 177.295 38.8827 177.105C39.2534 178.226 39.8113 179.161 40.3692 180.096C41.1087 183.085 42.9704 185.331 45.3926 187.39C48.9334 190.2 52.6622 192.45 56.9525 194.141C60.6832 195.643 64.79 196.027 68.3408 194.729C73.7606 192.688 78.4363 189.525 81.9953 184.866C85.5543 180.207 88.5537 175.36 89.8758 169.201C91.1969 163.416 90.2766 157.999 88.0489 152.766C87.3057 151.27 86.189 149.774 84.5109 148.836C84.3209 150.142 85.4394 150.892 84.6907 151.637C84.1283 152.569 84.1265 153.316 84.1246 154.063C84.1237 154.436 84.3091 154.997 83.7475 155.556C83.5604 155.742 83.0007 155.554 82.8144 155.367C82.4419 154.992 82.4428 154.619 82.6309 154.059C83.1943 152.754 82.0831 149.017 80.9646 148.267C81.1427 151.815 78.336 154.236 77.3946 157.407C77.2065 157.967 76.8331 157.966 76.4597 157.965C75.9 157.777 76.0881 157.217 76.089 156.844C76.4661 155.351 76.8432 153.858 76.8478 151.991C76.856 148.63 76.3036 145.455 73.1345 143.393C72.762 143.019 72.5757 142.832 72.0151 143.017C70.1479 143.012 68.6561 142.262 68.2872 140.394C68.1037 139.086 67.3596 137.964 66.8026 136.656C65.8732 134.973 64.5694 133.663 63.4527 132.167C62.3361 130.67 60.4717 129.545 58.043 130.099C57.4824 130.285 56.9227 130.097 56.3621 130.282C55.9887 130.281 55.6152 130.28 55.6162 129.907C55.6171 129.533 55.8042 129.347 55.9914 129.161C56.552 128.975 57.4861 128.791 58.7935 128.607C56.9309 126.736 55.0656 125.984 52.8269 125.232C50.7744 124.667 48.3475 124.474 45.9198 124.655C46.8556 123.724 47.6034 123.352 48.5374 123.168C53.581 122.246 58.2448 123.938 62.3452 126.936C63.4637 127.685 64.3968 127.874 65.5171 127.877C64.7739 126.382 64.0307 124.886 63.1003 123.577C57.1437 116.093 47.8125 114.203 39.7778 116.611C33.4249 118.463 28.0024 121.624 23.3221 126.653C19.7649 130.566 17.7006 134.855 17.3143 140.082C17.1235 141.762 16.7446 144.002 18.6071 145.874ZM82.9257 186.175C84.046 186.178 84.234 185.618 84.6084 185.246C87.416 182.452 89.8501 179.657 92.099 176.302C96.9709 169.219 99.0427 161.942 95.1413 153.903C93.8411 151.099 92.9154 147.923 90.6803 145.677C89.9352 144.928 89.5636 144.18 88.4442 143.804C89.0012 145.113 89.7453 146.235 90.3022 147.543C90.6748 147.917 90.6738 148.291 90.2995 148.663C90.1123 148.85 89.7389 148.849 89.5526 148.662C88.8067 148.286 88.0607 147.911 87.5011 147.723C94.9358 161.558 93.9707 174.439 82.9257 186.175ZM85.676 130.541C82.1289 130.345 78.9515 131.644 75.775 132.57C73.5326 133.312 72.4077 135.176 70.9095 137.039C70.7214 137.599 71.093 138.347 71.4655 138.721C72.0243 139.283 72.2133 138.35 72.5876 137.977C73.5244 136.672 74.8337 135.742 76.3283 135.372C79.5048 134.446 82.4959 132.96 86.2265 134.463C85.2961 133.154 85.1126 131.846 85.676 130.541ZM88.2507 146.604C86.9496 144.174 85.8357 141.557 83.2254 140.057C80.9884 138.558 78.9359 137.993 76.3192 139.107C80.7958 140.985 84.3356 144.168 88.2507 146.604ZM69.6404 121.539C69.2569 125.646 70.1809 129.569 71.2911 133.679C73.3564 129.017 71.125 125.277 69.6404 121.539ZM63.6472 128.993C66.0704 130.679 68.1183 133.112 69.4185 135.915C70.3589 133.117 67.5669 129.563 63.6472 128.993ZM86.7945 131.29C86.2311 132.596 86.4164 133.156 87.3477 134.092C87.3505 132.972 87.1651 132.411 86.7945 131.29ZM76.1375 137.052C76.3247 136.866 76.5109 137.053 76.5109 137.053C76.5109 137.053 76.6981 136.867 76.5118 136.68L76.1384 136.679C76.3247 136.866 76.1375 137.052 76.1375 137.052Z" fill="#020202"/>
</g>
</svg>
